<svg xmlns="http://www.w3.org/2000/svg" width="299" height="306" fill="none" viewBox="0 0 299 306"><path fill="#E5E4DE" d="M60.563 264.28a.76.76 0 0 1 .224.551v15.56a.76.76 0 0 1-.224.549.74.74 0 0 1-.545.229.73.73 0 0 1-.545-.229.75.75 0 0 1-.227-.549v-5.009a.35.35 0 0 0 .023-.391c-.005-.011-.015-.016-.023-.026v-10.136q.001-.325.227-.551a.73.73 0 0 1 .545-.227q.322 0 .545.227zm129.938 16.111v-1.483c-.148.054-.26-.072-.26-.312 0-.404.102-.551.26-.425v-6.183a4 4 0 0 0-.39.118c-.267.103-.484.049-.484-.121 0-.324.466-.556.874-.551v-6.253a1 1 0 0 1-.059.312c-.084.214-.155.039-.155-.386s.069-.6.155-.387c.036.088.051.199.059.312v-.201a.75.75 0 0 0-.224-.551.74.74 0 0 0-.546-.227.74.74 0 0 0-.545.227.75.75 0 0 0-.224.551v15.56q0 .324.224.549a.73.73 0 0 0 .545.229.73.73 0 0 0 .546-.229.75.75 0 0 0 .224-.549m27.239-101.953a201 201 0 0 1-5.164 6.664 203.8 203.8 0 0 1-30.008 30.09 203 203 0 0 0 7.78-11.323 1 1 0 0 0-.005.09c0 .247.115.45.255.45s.254-.131.254-.291a.6.6 0 0 0-.254-.45.15.15 0 0 0-.105-.026 201 201 0 0 0 16.023-30.7l.28.53c.421.794.596.742.596-.175 0-.548-.127-.713-.453-.59l-.387.152a206 206 0 0 0 2.988-7.61q.412-1.124.812-2.256l.181.297.247-.405c.24-.391.128-.777-.112-.785l.066-.188a206 206 0 0 0 1.682-5.03 201 201 0 0 0 3.551-12.513 134 134 0 0 0-10.832-14.878 133 133 0 0 0-8.531-9.268 135 135 0 0 0-9.331-8.414c.148-.023.199-.103.105-.198a.285.285 0 0 0-.375-.023 135.3 135.3 0 0 0-19.821-13.456c.039-.039.034-.09-.023-.147a.29.29 0 0 0-.333-.051 135 135 0 0 0-14.056-6.737 484 484 0 0 1-.928-30.028c0-11.337.393-22.583 1.167-33.721 23.357 9.904 43.33 26.172 57.728 46.61a.3.3 0 0 0-.183.08c-.113.113-.021.206.203.206q.1-.002.161-.023a135 135 0 0 1 6.906 10.924 199 199 0 0 1 6.335 22.583c-.889-.35-.968-.229-.55.559l.344.649.42-.227q.643 3.014 1.195 6.062a201 201 0 0 1 2.791 22.787 203 203 0 0 1 .347 19.232q-.082 2.772-.234 5.527a188 188 0 0 1-1.794 2.915q-1.22 1.949-2.486 3.868c-.26-.186-.571-.039-.571.366 0 .144.051.242.138.288q-.744 1.122-1.503 2.235a201 201 0 0 1-4.524 6.356zm9.259-46.377c0 .047.201.085.446.085s.374-.118.285-.262c-.137-.224-.731-.077-.731.177m.288 6.691c-.178 0-.239.139-.135.309.105.17.25.309.326.309s.135-.139.135-.309a.317.317 0 0 0-.323-.309zm-.288 6.987c0 .075.217.136.479.136s.39-.141.285-.314c-.175-.286-.761-.149-.761.178zm.754 6.618c-.262-.43-.446-.35-.446.194 0 .265.141.396.311.288.171-.108.232-.324.135-.482m-.754 7.152c0 .155.207.201.459.103s.379-.304.285-.458c-.199-.325-.744-.065-.744.355m-3.072-9.917c.415 0 .673-.552.352-.75-.153-.095-.357.034-.454.289s-.051.463.102.463zm.301-6.959c.16-.1.216-.389.119-.639-.242-.638-.412-.564-.412.183 0 .351.132.557.293.454zm.216 13.258a.285.285 0 0 0-.407 0c-.112.113-.021.206.203.206.225 0 .316-.093.204-.206m0-27.252a.287.287 0 0 0-.407 0c-.112.113-.021.206.203.206.225 0 .316-.093.204-.206m-.486-13.549c.015.361.086.435.186.188.089-.224.079-.492-.023-.595s-.174.08-.161.407zm-.176 6.637c.102.167.316.306.476.306.441 0 .344-.221-.188-.427-.273-.106-.395-.054-.288.121m0 13.623c.104.17.326.309.494.309s.222-.139.117-.309c-.104-.17-.326-.309-.496-.309-.171 0-.222.139-.118.309zm-30.173-50.926c0 .265.14.396.31.288.171-.106.232-.325.135-.482-.262-.43-.445-.35-.445.196zm.186 13.226c-.102-.103-.174.08-.161.407.015.36.087.435.186.188.089-.224.079-.492-.023-.595zm0 6.815c-.102-.103-.174.079-.161.406.015.361.087.436.186.188.089-.224.079-.491-.023-.594zm-3.554-50.873c0 .227.092.32.204.206a.295.295 0 0 0 0-.412c-.112-.113-.204-.02-.204.206m-3.217-3.407c.104.17.257.309.341.309s.069-.14-.036-.31c-.104-.17-.257-.308-.344-.308s-.068.139.036.309zm.356 6.606c-.112-.114-.203-.021-.203.206s.091.319.203.206a.295.295 0 0 0 0-.412m-.203 14.14c.224 0 .315-.092.203-.206a.286.286 0 0 0-.407 0c-.112.114-.021.207.204.207m-.306 6.503c0 .227.092.32.204.206a.295.295 0 0 0 0-.412c-.112-.113-.204-.02-.204.206m-3.065-30.35c.225 0 .316-.093.204-.206a.286.286 0 0 0-.407 0c-.113.114-.021.206.203.206m.204 13.111a.286.286 0 0 0-.407 0c-.113.113-.021.206.203.206.225 0 .316-.093.204-.206m-.509-6.605c0 .226.091.319.204.205a.295.295 0 0 0 0-.412c-.113-.113-.204-.02-.204.206m0 27.251c0 .227.091.32.204.206a.295.295 0 0 0 0-.412c-.113-.113-.204-.02-.204.206m.186 6.588c-.102-.103-.174.08-.161.407.015.36.087.435.186.188.089-.224.079-.49-.023-.595zm-3.554-43.886c0 .266.14.397.311.289s.232-.325.135-.485c-.262-.43-.446-.35-.446.196m.344 20.134c-.153-.095-.359.033-.456.288s-.051.464.102.464c.415 0 .672-.551.351-.752zm.018 6.567c-.219-.222-.362-.24-.362-.046 0 .175.092.412.204.528.112.113.275.133.362.046s-.005-.325-.204-.526zm-3.554-16.371c.357-.016.431-.088.186-.188-.221-.09-.486-.078-.588.026-.102.102.079.175.402.162m.026 20.36a.295.295 0 0 0 0-.412c-.112-.113-.204-.02-.204.206 0 .227.092.32.204.206m-.308 13.59c.196.52.31.556.545.173.094-.152-.031-.356-.273-.449-.295-.113-.385-.023-.272.279zm-.202-20.61c0 .226.092.32.204.206a.295.295 0 0 0 0-.412c-.112-.114-.204-.02-.204.206m-2.697-3.253c.007.51.076.683.153.381.079-.301.073-.718-.011-.93-.084-.208-.147.037-.14.55zm-.367-20.285c.224 0 .316-.093.204-.206a.287.287 0 0 0-.408 0c-.112.113-.02.206.204.206m.204 6.296c-.112-.113-.204-.02-.204.206 0 .227.092.32.204.206a.295.295 0 0 0 0-.412m-.51 7.02c0 .227.092.32.204.206a.295.295 0 0 0 0-.412c-.112-.113-.204-.02-.204.206m-2.552 17.136a.287.287 0 0 0-.408 0c-.112.114-.02.207.204.207s.316-.093.204-.207m-.51-13.728c0 .17.145.309.324.309.178 0 .239-.14.135-.31-.105-.17-.25-.309-.326-.309s-.135.14-.135.31zm0 6.968c0 .255.054.464.12.464s.199-.209.295-.464c.097-.255.044-.463-.119-.463s-.296.208-.296.463m-3.37-24.002c0 .227.092.32.204.206a.295.295 0 0 0 0-.411c-.112-.114-.204-.021-.204.206m0 6.815c0 .17.145.309.324.309.178 0 .239-.14.135-.31-.105-.17-.25-.308-.326-.308s-.135.139-.135.309zm.459 7.123c-.105-.17-.258-.309-.344-.309-.087 0-.069.14.035.309.105.17.258.31.342.31s.069-.14-.036-.31zm-.459 13.626c0 .227.092.32.204.206a.295.295 0 0 0 0-.412c-.112-.113-.204-.02-.204.206m-3.37-37.473c0 .226.092.32.204.206a.295.295 0 0 0 0-.412c-.112-.114-.204-.02-.204.206m-3.064 3.407c.224 0 .315-.093.203-.206a.286.286 0 0 0-.407 0c-.112.113-.021.206.204.206m-.306 13.317c0 .17.145.309.323.309s.24-.14.135-.31-.249-.308-.326-.308c-.076 0-.135.139-.135.309zm0 13.626c0 .226.091.319.204.206a.295.295 0 0 0 0-.412c-.113-.114-.204-.02-.204.206m-6.74-20.44c0 .17.145.309.323.309s.239-.14.135-.31-.25-.309-.323-.309-.135.14-.135.31m.178 7.097c.356-.015.43-.087.186-.188-.222-.09-.487-.077-.589.026s.079.175.403.162m-.178 20.772c.428 0 .654-.556.31-.77-.407-.255-.983.114-.756.482.097.16.298.288.446.288m-.008 5.885c-.153 0-.199.209-.105.463.097.255.301.384.456.289.321-.2.064-.752-.351-.752m.346-20.265c-.15-.095-.351.03-.443.276q-.168.446.275.275c.515-.2.55-.314.168-.551m3.032-10.085c0 .17.145.31.323.31s.24-.14.135-.31-.249-.309-.323-.309-.135.14-.135.31m.458 20.44c-.104-.17-.249-.309-.323-.309s-.135.14-.135.31.145.308.323.308.24-.139.135-.309m3.358 17.013c-.263-.43-.446-.35-.446.195 0 .266.14.397.311.289.17-.106.231-.325.135-.482zm.063-13.503a.286.286 0 0 0-.407 0c-.112.114-.021.206.204.206s.315-.092.203-.206m.102-13.747c0-.16-.114-.29-.255-.29-.14 0-.254.203-.254.45s.114.379.254.291a.6.6 0 0 0 .255-.45m2.609-9.575.226.371.247-.404c.324-.528.006-1.048-.394-.644a.585.585 0 0 0-.079.68zm.659 46.86c-.112-.113-.203-.02-.203.207s.091.319.203.206a.293.293 0 0 0 0-.412m.102-6.644c0-.17-.137-.224-.305-.118s-.306.33-.306.502c0 .173.138.224.306.118.168-.105.305-.33.305-.502m-.288-20.092c.179 0 .24-.14.135-.31s-.249-.308-.326-.308c-.076 0-.135.139-.135.309s.146.309.324.309zm.288-7.16c0-.17-.137-.224-.305-.118s-.306.33-.306.502c0 .173.138.224.306.119s.305-.33.305-.503m0-6.294c0-.244-.137-.533-.305-.638-.168-.106-.306.095-.306.445s.138.639.306.639.305-.2.305-.446m3.157 22.877c-.306.046-.52.172-.477.286.041.11.077.353.077.538 0 .51.751.147.861-.415.061-.324-.095-.463-.459-.41zm2.56 3.997c-.113-.114-.204-.02-.204.206s.091.32.204.206a.295.295 0 0 0 0-.412m1.021 13.505c0-.18-.138-.243-.306-.137s-.305.252-.305.327.137.137.305.137.306-.147.306-.327m0-6.678c0-.085-.138-.07-.306.036-.168.105-.305.26-.305.345s.137.07.305-.036.306-.26.306-.345m-.339-7.067c-.15.096-.275.374-.275.618 0 .456.364.593.693.26.275-.28-.104-1.076-.42-.878zm3.299 17.582a.286.286 0 0 0-.407 0c-.113.113-.021.206.203.206s.316-.093.204-.206m.102-20.698c0-.255-.138-.463-.306-.463s-.305.208-.305.463.137.464.305.464.306-.209.306-.464m.306-6.832c0-.075-.138-.137-.306-.137s-.306.147-.306.327.138.242.306.137c.168-.106.306-.252.306-.327m3.214 30.522c-.104-.17-.318-.309-.476-.309s-.288.139-.288.309.217.309.479.309.392-.139.288-.309zm0-6.814c-.104-.17-.249-.309-.323-.309s-.135.14-.135.31.145.308.326.308.239-.139.135-.309zm-.336-13.853c-.102.104-.076.364.056.58l.24.391.13-.391c.147-.448-.151-.858-.426-.58m3.554 23.881c0-.085-.138-.069-.306.036s-.306.26-.306.345.138.07.306-.036c.168-.105.306-.26.306-.345m.153-6.62c-.105-.17-.25-.31-.324-.31s-.135.14-.135.31.145.308.326.308.24-.139.135-.309zm0-6.815c-.105-.17-.258-.31-.342-.31s-.069.14.036.31c.104.17.257.309.344.309s.069-.14-.036-.31zm-.135-6.503c.178 0 .239-.139.135-.309-.105-.17-.25-.309-.324-.309s-.135.14-.135.31.148.308.326.308zm-.286-7.512-.573-.152.15.58c.082.319.342.58.573.58.635 0 .513-.835-.15-1.01zm.573-19.894c0-.255-.122-.464-.275-.464s-.351.209-.451.464c-.107.283 0 .463.276.463.247 0 .45-.208.45-.463m2.451 16.879c0 .226.092.319.204.206a.295.295 0 0 0 0-.412c-.112-.114-.204-.021-.204.206m.306 27.563c.224 0 .316-.093.203-.206a.287.287 0 0 0-.407 0c-.112.113-.021.206.204.206m.203 5.988c-.112-.114-.203-.021-.203.206s.091.319.203.206a.293.293 0 0 0 0-.412m.408-13.111a.317.317 0 0 0-.323-.31c-.179 0-.24.14-.136.31.105.17.25.309.327.309.076 0 .135-.14.135-.31zm-.168-27.37c-.273-.106-.395-.055-.288.12.102.168.316.307.476.307.441 0 .344-.222-.188-.428m3.288 37.689c-.221-.09-.484-.077-.585.026-.102.103.079.175.402.162.357-.016.431-.088.186-.188zm.097-6.912c-.104-.17-.257-.31-.341-.31s-.069.14.036.31c.104.17.257.309.344.309s.068-.14-.036-.31zm.459-13.752c0-.284-.214-.379-.614-.273-.336.09-.614.285-.614.435s.275.273.614.273.614-.196.614-.435m2.654 24.074c-.112-.114-.204-.021-.204.206s.092.319.204.206a.295.295 0 0 0 0-.412m.408-6.781c0-.075-.138-.137-.306-.137s-.306.147-.306.327.138.242.306.137c.168-.106.306-.253.306-.327m-.301-6.487c.171-.109.232-.325.135-.484-.262-.43-.446-.35-.446.195 0 .266.14.397.311.289m.301-7.294a.3.3 0 0 0-.306-.29c-.168 0-.306.216-.306.481s.138.397.306.291.306-.322.306-.482m0-27.079a.463.463 0 0 0-.459-.463c-.479 0-.609.365-.254.723.351.356.715.227.715-.257zm2.96 50.739c-.112-.114-.204-.021-.204.206s.092.319.204.206a.295.295 0 0 0 0-.412m.168-20.853c-.133 0-.263.281-.288.626s.084.546.242.446c.349-.22.385-1.072.046-1.072m2.998-2.786c0 .17.145.309.324.309.178 0 .239-.14.135-.309-.105-.17-.25-.31-.324-.31s-.135.14-.135.31m.204-13.11a.295.295 0 0 0 0-.413c-.112-.113-.204-.02-.204.206 0 .227.092.32.204.206m.252 27.05c.107-.175-.015-.227-.288-.121-.262.1-.476.24-.476.307 0 .252.583.11.764-.186m-.01 13.291c-.263-.43-.446-.35-.446.196 0 .265.14.397.311.288.171-.108.232-.324.135-.484m.013-6.791c-.105-.17-.25-.309-.324-.309s-.135.139-.135.309.145.309.326.309.24-.139.135-.309zm0-13.626c-.105-.17-.25-.309-.324-.309s-.135.14-.135.31.145.308.326.308.24-.139.135-.309zm.05-33.963a.286.286 0 0 0-.407 0c-.112.113-.02.206.204.206s.316-.093.203-.206m6.741 40.878a.29.29 0 0 0-.408 0c-.112.113-.02.206.204.206s.316-.093.204-.206m0 6.814a.29.29 0 0 0-.408 0c-.112.113-.02.206.204.206s.316-.093.204-.206m-.51-34.169c0 .17.146.31.324.31s.239-.14.135-.31c-.105-.17-.25-.309-.326-.309s-.135.14-.135.309zm0 6.814c0 .227.092.32.204.206a.295.295 0 0 0 0-.412c-.112-.113-.204-.02-.204.206m0 6.815c0 .17.146.309.324.309s.239-.14.135-.31c-.105-.17-.25-.308-.324-.308-.073 0-.135.139-.135.309m0 6.814c0 .17.146.309.326.309s.24-.14.135-.31-.249-.308-.323-.308-.135.139-.135.309zm-3.37-23.672c0 .265.14.396.311.288.171-.106.232-.324.135-.481-.262-.43-.446-.35-.446.195zm0 6.639c0 .226.092.32.204.206a.295.295 0 0 0 0-.412c-.112-.114-.204-.02-.204.206m.153 40.983c-.237 0-.362.116-.275.258.087.141.211.257.275.257s.189-.116.275-.257-.038-.258-.275-.258m.051-6.4a.295.295 0 0 0 0-.412c-.112-.113-.204-.02-.204.206 0 .227.092.32.204.206m.255-20.955c-.105-.17-.25-.309-.324-.309s-.135.14-.135.31.145.308.324.308c.178 0 .239-.139.135-.309m2.807-24.053c-.112-.113-.204-.02-.204.206 0 .227.092.32.204.206a.295.295 0 0 0 0-.412m.102 47.916c0 .18.137.242.306.136s.305-.252.305-.327c0-.074-.137-.136-.305-.136-.169 0-.306.147-.306.327m.614 6.93c0-.265-.138-.396-.306-.291s-.306.322-.306.482a.3.3 0 0 0 .306.291c.168 0 .306-.217.306-.484zm3.064-50.924c.224 0 .316-.093.204-.206a.287.287 0 0 0-.408 0c-.112.113-.02.206.204.206m.204 6.606a.287.287 0 0 0-.408 0c-.112.113-.02.206.204.206s.316-.093.204-.206m-.204 13.832c.224 0 .316-.093.204-.206a.287.287 0 0 0-.408 0c-.112.113-.02.206.204.206m.038 33.314c-.152-.095-.359.033-.456.288-.096.255-.051.464.105.464.415 0 .672-.551.351-.752m-.14-5.676a1.22 1.22 0 0 0 0-.775c-.084-.214-.155-.039-.155.386s.069.6.155.386zm.258-14.324c-.105-.17-.25-.309-.324-.309s-.135.139-.135.309.145.309.326.309.24-.139.135-.309zm.152-6.678c0-.074-.137-.136-.305-.136s-.306.147-.306.327.138.242.306.136.305-.252.305-.327m6.229-6.845c-.112.113-.021.206.203.206.225 0 .316-.093.204-.206a.286.286 0 0 0-.407 0m-.102-6.917c0 .227.091.32.204.206a.295.295 0 0 0 0-.412c-.113-.114-.204-.02-.204.206m-.138 13.963c.1.162.311.211.469.11.16-.1.209-.313.11-.473a.34.34 0 0 0-.469-.11.35.35 0 0 0-.112.473zm-.015 6.786c.104.17.25.309.326.309s.135-.139.135-.309a.317.317 0 0 0-.323-.309c-.179 0-.24.139-.136.309zm-2.453 16.727c.107-.175-.015-.227-.288-.121-.262.1-.474.239-.474.306 0 .252.584.111.764-.185zm-.561 6.422c-.084-.213-.155-.038-.155.387s.069.6.155.386a1.22 1.22 0 0 0 0-.775zm.383-13.427-.388-.471-.27.486c-.147.268-.186.626-.081.793.104.17.308.307.458.307.505 0 .668-.644.278-1.118zm-.281-6.935c-.168 0-.305.216-.305.481s.137.397.305.291c.168-.105.306-.322.306-.484a.3.3 0 0 0-.306-.291zm.005-12.856c.171-.109.232-.325.135-.484-.262-.43-.445-.35-.445.195 0 .266.14.397.31.289m-.14-13.778c.263 0 .39-.142.286-.314-.176-.286-.762-.15-.762.177 0 .075.214.137.476.137m.749 54.228c0-.314-.932-.742-1.146-.525-.076.077-.049.291.061.471.245.399 1.085.44 1.085.054m2.413-23.299c.384-.129.473-.579.114-.579-.127 0-.28.157-.344.347-.063.191.041.297.23.232m.55 19.961a.29.29 0 0 0-.408 0c-.112.114-.02.206.204.206s.316-.092.204-.206m-.306-6.708a.295.295 0 0 0 0-.412c-.112-.114-.204-.021-.204.206s.092.319.204.206m.306-6.918a.29.29 0 0 0-.408 0c-.112.114-.02.206.204.206s.316-.092.204-.206m-20.899 81.846c-.272-.106-.394-.054-.287.121.101.167.315.307.476.307.441 0 .344-.222-.189-.428m4.377-3.693c-.151-.453-.9-.489-1.045-.049-.058.178.181.343.53.368.372.029.586-.105.515-.319m5.734-13.247q.475.775.476-.345c0-.5-.089-.59-.341-.338-.189.188-.247.497-.135.683m-3.2 3.296c0 .265.14.397.311.289s.232-.325.135-.482c-.262-.43-.446-.35-.446.193m.171 6.33c-.262 0-.476.139-.476.309s.13.309.287.309c.158 0 .375-.139.479-.309.105-.17-.025-.309-.287-.309zm3.37-3.098c-.262 0-.476.139-.476.309s.13.309.288.309.374-.139.478-.309c.105-.17-.025-.309-.287-.309zm3.811-3.077c0-.366-.599-.758-.818-.533-.089.09-.071.314.039.494.249.409.779.435.779.039m0-6.869c0-.17-.138-.224-.306-.118-.168.105-.305.02-.305-.188 0-.209-.087-.294-.191-.186-.107.106-.107.418-.003.691.194.51.805.36.805-.199m3.676 3.101c0-.152-.275-.276-.614-.276-.596 0-.797.33-.428.701.244.247 1.042-.077 1.042-.425m-.614-6.469c.168 0 .306-.209.306-.464s-.138-.463-.306-.463-.306.208-.306.463.138.464.306.464m.614-7.124c0-.169-.275-.309-.614-.309s-.614.14-.614.309c0 .17.275.31.614.31s.614-.14.614-.31m2.769 10.227c-.622-.389-1.034-.041-.591.497.265.325.463.355.7.116.24-.242.209-.415-.109-.613m.293-6.84c0-.16-.207-.291-.459-.291-.474 0-.609.366-.262.713.244.248.723-.031.723-.422zm.305-6.814c0-.16-.344-.291-.766-.291-.872 0-1.04.51-.23.698.635.144.996 0 .996-.407m5.694-40.51.239.392.13-.392c.148-.448-.15-.857-.425-.579-.102.103-.077.363.056.579m-.026 6.462c.105.17.326.309.494.309.169 0 .222-.139.118-.309s-.326-.309-.497-.309-.222.139-.117.309zm.459 27.543c0-.351-.133-.557-.293-.456-.161.1-.217.389-.12.638.242.639.413.564.413-.182m.614 6.677c0-.255-.13-.463-.288-.463-.387 0-.663.484-.418.731.344.348.706.211.706-.268m-.25-27.62c-.222-.09-.487-.077-.588.026-.102.103.079.175.402.162.357-.015.431-.087.186-.188m-.16-20.123a.286.286 0 0 0-.408 0c-.112.113-.02.206.204.206s.316-.093.204-.206m-.408-6.503c-.112.113-.02.206.204.206s.316-.093.204-.206a.29.29 0 0 0-.408 0m-.102-13.729c.224 0 .316-.093.204-.206a.287.287 0 0 0-.408 0c-.112.114-.02.206.204.206m-3.225 30.644c.112.185.347.247.517.141.209-.131.204-.303-.015-.525-.392-.397-.792-.09-.502.386zm.061-6.902a.295.295 0 0 0 0-.412c-.112-.113-.204-.021-.204.206s.092.319.204.206m-.204-33.924c0 .17.138.224.306.118s.306-.33.306-.502c0-.173-.138-.224-.306-.119s-.306.33-.306.503m-.112 6.62c.097.256.298.387.451.292.433-.27.321-.755-.175-.755-.276 0-.38.183-.276.464m.112 13.784c.225 0 .316-.093.204-.206a.285.285 0 0 0-.407 0c-.112.113-.021.206.203.206m-.397 6.927c.357.361 1.164.065 1.164-.427 0-.253-.31-.505-.69-.559-.67-.095-.958.499-.474.986m.303 20.438c.344.347.706.211.706-.268 0-.255-.13-.464-.288-.464-.387 0-.662.485-.418.732m.604 13.309a.29.29 0 0 0-.408 0c-.112.113-.02.206.204.206s.316-.093.204-.206m-.301 7.077c.09-.224.079-.489-.023-.592-.101-.103-.173.079-.16.406.015.361.087.436.186.188zm-.056 6.755c.105.17.25.309.326.309s.135-.139.135-.309a.317.317 0 0 0-.323-.309c-.178 0-.24.139-.135.309zm.288 7.123c.263 0 .479-.139.479-.309s-.13-.309-.288-.309-.374.139-.476.309c-.105.17.025.309.288.309zm-.229 6.307c.29.294.706.24.706-.093 0-.419-.541-.695-.737-.376-.091.15-.079.361.031.469m44.27 88.493a.75.75 0 0 0-.227-.551.73.73 0 0 0-.542-.227.74.74 0 0 0-.545.227.74.74 0 0 0-.227.551v2.853h1.541zm36.422-6.009a13 13 0 0 1 .899 4.778v8.235h-.382c.016-.033.005-.077-.04-.121a.29.29 0 0 0-.408 0c-.046.047-.056.088-.038.121h-.762c1.085 1.87 1.633 4.093 1.633 6.609v3.178c0 2.315-.563 4.532-1.671 6.587-1.169 2.161-2.952 3.904-5.301 5.187-2.242 1.223-4.965 1.841-8.101 1.841-3.135 0-5.846-.608-8.128-1.808-1.33-.698-2.497-1.54-3.477-2.511-.344.34-.714.665-1.101.974-.201.01-.405.129-.415.317q-.912.67-1.961 1.223c-2.283 1.197-5.019 1.805-8.129 1.805s-5.862-.618-8.098-1.841l-.043-.021v.956h-54.44v-1.154q-.233.132-.466.255c-2.285 1.197-5.018 1.805-8.131 1.805s-5.859-.618-8.098-1.841l-.168-.093v1.028h-30.53v-2.795c-.902 2.844-2.423 5.38-4.54 7.569-3.701 3.827-9.106 5.766-16.066 5.766s-12.438-1.923-16.109-5.722a19 19 0 0 1-3.406-4.818H68.478v-.25c-1.422.708-3.009 1.092-4.738 1.148V306h-1.06c.077-.072.127-.144.127-.188 0-.074-.137-.136-.305-.136s-.303.147-.306.324h-5.538a.47.47 0 0 0-.453-.324c-.263 0-.398-.129-.3-.289a.344.344 0 0 0-.113-.468c-.158-.101-.336.067-.395.365-.046.23.069.505.275.716h-6.508a.338.338 0 0 0-.469-.461.347.347 0 0 0-.114.464h-3.824v-12.856q-.256.146-.525.288c-2.282 1.198-5.018 1.806-8.129 1.806s-5.685-.58-7.884-1.726v.819H0V239.22h18.988v8.424c-.043-.098-.155-.116-.285-.036-.168.105-.306.252-.306.327 0 .074.138.136.306.136a.305.305 0 0 0 .285-.221v6.945c-.097-.329-.599-.628-.797-.427-.09.09-.074.314.038.494.222.363.662.422.759.152v20.765h2.043v-24.893H35.09q.017.06.043.126c.097.255.316.464.487.464s.15-.196-.072-.464l-.107-.126h9.313v-.453h15.567a9.8 9.8 0 0 1 2.968-.456c1.85 0 3.54.366 5.046 1.089a248 248 0 0 1-4.929-5.64c-.24-.283-.474-.569-.71-.852.025-.057.015-.134-.036-.222-.105-.17-.25-.309-.324-.309q-.03.002-.056.031a253.7 253.7 0 0 1-30.453-45.719 253 253 0 0 1-10.982-24.185l-2.713-6.927 3.673-4.175a.33.33 0 0 0 .293-.026.346.346 0 0 0 .123-.445l.812-.922c.58-.662 1.16-1.306 1.714-1.911q.207-.222.413-.446v.049c.015.361.087.436.186.188a.8.8 0 0 0 .038-.476 127 127 0 0 1 6.402-6.402l.089.008c.168 0 .306-.147.306-.328q.001-.023-.005-.043 1.578-1.456 3.201-2.859c.051.023.113.018.176-.023a.38.38 0 0 0 .179-.278 126 126 0 0 1 11.093-8.478 126 126 0 0 1 3.57-2.333 155 155 0 0 1-16.607-11.829h-.11l-1.324-1.151c.038-.139-.003-.286-.12-.358-.089-.056-.17-.026-.216.067l-1.702-1.476q-.777-.671-1.541-1.352c.227-.167.308-.507.071-.656-.153-.096-.359.033-.456.288q0 .007-.005.018a155 155 0 0 1-4.364-4.056l-11.373-11.002 9.127-5.495c.03.141.155.25.31.25.179 0 .24-.14.136-.31a1 1 0 0 0-.108-.144l4.058-2.444a154.5 154.5 0 0 1 39.991-16.968l.252-1.198A153.3 153.3 0 0 1 79.5 43.662c.094-.029.127-.088.08-.157a155 155 0 0 1 9.817-16.676.37.37 0 0 0 .244-.36 155 155 0 0 1 13.774-17.417l1.334-1.249a16 16 0 0 1 3.788-2.634 17.7 17.7 0 0 1 4.066-1.443 157 157 0 0 1 6.888-1.37 1 1 0 0 0-.015.134c0 .17.145.31.323.31s.24-.14.135-.31a1 1 0 0 0-.145-.188c.013 0 .023-.005.036-.005A157 157 0 0 1 147.552.003h.459l.453.043c2.194.19 4.402.433 6.58.721h.016l.807.111a147 147 0 0 1 10.946 1.937c.105.165.252.296.334.296.069 0 .066-.095.01-.222 1.944.425 3.88.884 5.795 1.386l1.34.35 1.225.652q.653.35 1.302.703-.055.059-.056.226c0 .227.092.32.204.207a.3.3 0 0 0 .061-.322 148 148 0 0 1 14.395 8.967c14.387 10.162 26.701 22.662 36.613 37.167l.02.018.637.947q.073.108.145.22h.062l1.161 1.853a139 139 0 0 1 2.392 3.822q.573.914 1.111 1.844l.713 1.185v.077c2.7 4.885 4.794 10.062 6.534 15.367v.056c.01.273.056.382.12.31 2.272 7.007 3.935 14.238 5.571 21.346q.385 1.677.774 3.345.243 1.05.479 2.105a.27.27 0 0 0-.127.069c-.11.111-.023.201.188.206a232 232 0 0 1 3.082 16.711v.013q.001.115.028.18a239 239 0 0 1 1.784 15.71c.089 1.076.173 2.225.265 3.615v.018c.061.912.101 1.625.135 2.305v.054c.247 4.366.369 8.831.369 13.281 0 1.865-.02 3.683-.061 5.403l-.056 2.29-.877 2.111a144 144 0 0 1-4.317 9.403c-.28.561-.558 1.097-.77 1.509l-.048.09v.077l-1.49 2.73a1 1 0 0 0-.059.111l-.713 1.311-.033.033c-.224.402-.459.799-.688 1.198l-.002-.005c-.113-.114-.204-.021-.204.206q0 .08.015.136a143 143 0 0 1-2.924 4.857 147 147 0 0 1-3.559 5.38c1.61.948 3.199 1.929 4.751 2.936l.089.056.033.024.102.069a131 131 0 0 1 4.937 3.384.33.33 0 0 0-.077.209c0 .18.138.242.306.136q.068-.043.125-.09a131 131 0 0 1 14.005 11.713 132 132 0 0 1 13.053 14.573l2.962 3.85c-.074.07-.125.227-.125.441 0 .746.171.824.413.182a.7.7 0 0 0 .043-.19l2.072 2.691-2.288 3.381a.6.6 0 0 0-.471.382.22.22 0 0 0 .051.239l-2.224 3.289a153 153 0 0 1-7.619 10.309q.525.222 1.021.484c1.281.675 2.418 1.486 3.383 2.423a14 14 0 0 1 3.212-2.387c2.239-1.223 4.965-1.844 8.101-1.844s5.604.561 7.828 1.661a.4.4 0 0 0-.041.165c0 .391.171.363.349-.016 2.392 1.257 4.234 2.967 5.477 5.082.283.479.53.97.749 1.467-.026.15-.005.297.084.387a1 1 0 0 0 .114.095zm-26.53-14.465c-.105-.17-.25-.309-.324-.309s-.135.139-.135.309.145.309.324.309c.178 0 .239-.139.135-.309m-.255-6.606a.295.295 0 0 0 0-.412c-.112-.113-.204-.02-.204.206 0 .227.092.32.204.206m3.166-10.425c0 .227.092.32.204.206a.295.295 0 0 0 0-.412c-.112-.113-.204-.02-.204.206m-.308 6.987c0 .075.217.137.479.137s.39-.142.285-.314c-.176-.286-.761-.15-.761.177zm-2.451 3.235c0 .226.092.319.204.206a.295.295 0 0 0 0-.412c-.112-.113-.204-.021-.204.206m-.102-7.02c-.112-.114-.203-.021-.203.206s.091.319.203.206a.293.293 0 0 0 0-.412m-1.197-6.606.382.463c.209.255.418.464.464.464s.163-.209.26-.464c.122-.321-.02-.463-.464-.463zm-19.326-54.712c-.113-.114-.204-.021-.204.206s.091.319.204.206a.295.295 0 0 0 0-.412m.305-6.503a.287.287 0 0 0-.407 0c-.112.113-.021.206.203.206.225 0 .316-.093.204-.206m0-20.44a.285.285 0 0 0-.407 0c-.112.113-.021.206.203.206.225 0 .316-.093.204-.206m.102 13.832c0 .226.092.319.204.206a.295.295 0 0 0 0-.412c-.112-.114-.204-.021-.204.206m-.306-27.252c.225 0 .316-.093.204-.206a.287.287 0 0 0-.407 0c-.112.113-.021.206.203.206m-.613 6.675c0 .075.213.137.476.137.262 0 .39-.142.285-.315-.176-.285-.761-.149-.761.178m0 20.44c0 .075.137.137.305.137s.306-.147.306-.327-.138-.242-.306-.137c-.168.106-.305.253-.305.327m-3.167 9.841c-.112-.114-.204-.021-.204.206s.092.319.204.206a.295.295 0 0 0 0-.412m.561-6.606c-.105-.17-.25-.309-.324-.309s-.135.139-.135.309.148.309.326.309.24-.139.135-.309zm-.153-13.317c.224 0 .316-.093.204-.206a.29.29 0 0 0-.408 0c-.112.113-.02.206.204.206m.204 6.297c-.113-.114-.204-.021-.204.206s.091.319.204.206a.295.295 0 0 0 0-.412m.101-13.284c0-.075-.137-.136-.305-.136s-.306.146-.306.329.138.242.306.137c.168-.106.305-.253.305-.327zm-.305-6.796c-.168.106-.306.26-.306.345s.138.07.306-.036.305-.26.305-.345-.137-.07-.305.036m-.102-13.574a.295.295 0 0 0 0-.412c-.112-.114-.204-.021-.204.205 0 .227.092.32.204.207m-.512-6.694c0 .181.137.242.306.137.168-.106.305-.253.305-.327s-.137-.137-.305-.137c-.169 0-.306.147-.306.327m-2.553 64.501a.287.287 0 0 0-.407 0c-.112.114-.02.206.204.206s.316-.092.203-.206m-.7-48.104c-.084 0-.069.139.036.309.104.17.257.309.341.309s.069-.139-.036-.309c-.104-.17-.257-.309-.344-.309zm.395-6.296a.295.295 0 0 0 0-.412c-.112-.114-.204-.021-.204.206s.092.319.204.206m-.204 20.543c0 .226.092.319.204.206a.295.295 0 0 0 0-.412c-.112-.114-.204-.021-.204.206m0 13.317c0 .226.092.319.204.206a.295.295 0 0 0 0-.412c-.112-.114-.204-.021-.204.206m.102 6.969c0 .254.114.463.255.463.14 0 .254-.209.254-.463 0-.255-.114-.464-.254-.464s-.255.209-.255.464m.509-47.729c0-.085-.137-.069-.305.036s-.306.261-.306.346.138.069.306-.036.305-.261.305-.346m-.614-20.229a.3.3 0 0 0 .306.291c.168 0 .306-.216.306-.481s-.138-.397-.306-.291c-.168.105-.306.322-.306.481m-.305 6.462c0 .157.242.34.535.407.67.149.807.059.547-.363-.247-.405-1.085-.438-1.085-.044zm0 68.768c.438.829 1.133.366.772-.517-.156-.379-.278-.436-.375-.176-.079.214-.283.302-.453.196-.171-.108-.148.116.053.495zM15.462 108.075c-.262-.43-.445-.35-.445.196 0 .265.14.396.31.288.171-.108.232-.324.135-.484m3.383 3.428c-.104-.17-.25-.309-.323-.309s-.135.139-.135.309.145.309.323.309.24-.139.135-.309m3.095 3.18c-.102-.103-.173.08-.16.407.015.361.086.435.186.188.089-.224.076-.492-.023-.595zm.275-6.587c-.104-.17-.257-.309-.34-.309-.085 0-.07.139.035.309.104.17.257.309.341.309s.069-.139-.036-.309m2.604-3.407c0 .226.091.319.204.206a.294.294 0 0 0 0-.412c-.113-.114-.204-.021-.204.206m.614 13.316a.31.31 0 0 0-.306-.309.309.309 0 0 0 0 .618.31.31 0 0 0 .306-.309m.204-6.399a.287.287 0 0 0-.408 0c-.112.113-.02.206.204.206s.316-.093.204-.206m3.3 3.276a.337.337 0 0 0-.468-.111.35.35 0 0 0-.112.474c.1.162.31.211.469.11.16-.1.209-.314.112-.473m.003-6.809c-.262-.431-.445-.351-.445.195 0 .266.14.397.31.289.171-.108.232-.325.135-.484m.013-6.792c-.104-.17-.25-.309-.323-.309s-.135.139-.135.309.145.31.323.31.24-.14.135-.31m-6.995 74.738c-.112-.113-.204-.02-.204.206 0 .227.092.32.204.206a.294.294 0 0 0 0-.412m.242-6.629c-.262-.43-.446-.35-.446.194 0 .265.14.396.311.288s.232-.324.135-.482m-3.663 71.56c.105.17.257.309.341.309s.07-.139-.035-.309-.258-.309-.342-.309-.068.139.036.309m252.873 17.343c.224 0 .315-.093.203-.207a.287.287 0 0 0-.407 0c-.112.114-.02.207.204.207m-3.676-3.699c0 .181.137.242.306.137.168-.106.305-.253.305-.327s-.137-.137-.305-.137c-.169 0-.306.147-.306.327m.458-6.832c-.104-.17-.249-.309-.323-.309s-.135.139-.135.309.145.309.323.309.24-.139.135-.309m.051-6.709a.287.287 0 0 0-.407 0c-.112.114-.021.206.204.206s.315-.092.203-.206m-.509-20.656c0 .175.092.412.204.525s.275.134.361.047c.087-.088-.005-.325-.203-.528-.219-.222-.362-.24-.362-.047zm0 7.546c0 .339.053.62.117.62s.189-.278.278-.62c.089-.343.035-.621-.117-.621s-.278.278-.278.621m0 6.193c0 .227.092.32.204.206a.295.295 0 0 0 0-.412c-.112-.113-.204-.02-.204.206m-3.406-16.569.38-.381c.208-.209.303-.461.209-.557-.095-.095-.265.078-.38.381zm.497 13.162c-.105-.17-.25-.309-.326-.309s-.135.139-.135.309.145.309.323.309.24-.139.135-.309zm-3.523-16.724c.224 0 .316-.093.204-.206a.29.29 0 0 0-.408 0c-.112.113-.02.206.204.206m-.306 6.503c0 .17.145.309.324.309.178 0 .239-.139.135-.309-.105-.17-.25-.309-.326-.309s-.135.139-.135.309zm-.115 7.267c.199.526.673.533.803.013.041-.167-.166-.353-.459-.409-.384-.075-.481.036-.344.396m-3.255-17.489c0 .17.145.309.324.309.178 0 .239-.139.134-.309s-.249-.309-.326-.309c-.076 0-.135.139-.135.309zm0 6.815c0 .226.092.319.204.206a.295.295 0 0 0 0-.412c-.112-.114-.204-.021-.204.206m-.11 7.527c.245.247.724-.031.724-.422 0-.16-.206-.291-.459-.291-.473 0-.608.365-.265.713m-3.258-17.746c0 .17.146.309.324.309s.239-.139.135-.309-.25-.309-.326-.309-.135.139-.135.309zm-3.217-3.407c.105.17.257.309.344.309s.069-.139-.036-.309c-.104-.17-.257-.309-.341-.309s-.069.139.036.309zm-.153 13.626c0 .226.092.319.204.206a.295.295 0 0 0 0-.412c-.112-.114-.204-.021-.204.206m-3.37-10.219c0 .17.145.309.324.309.178 0 .239-.139.135-.309-.105-.17-.25-.309-.326-.309s-.135.139-.135.309zm-3.217-3.407c.104.17.257.309.344.309s.068-.139-.036-.309-.257-.309-.341-.309-.069.139.035.309zm-.153 6.814c.224 0 .316-.093.204-.206a.286.286 0 0 0-.408 0c-.112.113-.02.206.204.206m-3.064-3.098c0 .226.091.319.203.206a.295.295 0 0 0 0-.412c-.112-.114-.203-.021-.203.206m-.612-7.124c0 .227.092.32.204.207a.296.296 0 0 0 0-.413c-.112-.113-.204-.02-.204.206m-3.1-3.716c-.168 0-.222.139-.117.309.104.17.326.309.494.309s.222-.139.117-.309c-.104-.17-.326-.309-.497-.309zm.239-13.523c-.112-.113-.203-.02-.203.206 0 .227.091.32.203.206a.293.293 0 0 0 0-.412m.408-6.451c0-.589-.599-.911-.981-.525-.216.219-.183.463.102.778.469.512.879.396.879-.253m3.217 10.065c-.104-.17-.249-.309-.326-.309-.076 0-.135.139-.135.309s.146.309.324.309.239-.139.135-.309zm.051-6.709a.287.287 0 0 0-.407 0c-.112.113-.021.206.204.206s.315-.093.203-.206m0-6.814a.285.285 0 0 0-.407 0c-.112.113-.021.206.204.206s.315-.093.203-.206m-.336-7.536c-.285 0-.481.266-.481.647 0 .754.715.649.863-.129.059-.307-.097-.518-.382-.518m.13-80.828c.224 0 .316-.093.204-.206a.287.287 0 0 0-.408 0c-.112.113-.02.206.204.206m-.329 20.749c.146 0 .344-.209.441-.463.097-.255.059-.464-.089-.464s-.344.209-.441.464c-.097.254-.058.463.089.463m-.104-7.082.239.391.13-.391c.148-.448-.15-.858-.425-.58-.102.104-.077.364.056.58m-.178-6.974c0 .085.137.07.305-.036s.306-.26.306-.345-.138-.07-.306.036-.305.26-.305.345m.428 20.481c.438 0 .797-.121.797-.27 0-.345-.64-.342-1.182.005-.293.188-.181.265.382.265zm.389 6.686a.287.287 0 0 0-.407 0c-.112.113-.021.206.204.206s.315-.093.203-.206m-.051 6.709c-.104-.17-.249-.309-.326-.309-.076 0-.135.139-.135.309s.146.309.324.309.239-.139.135-.309zm-.945 7.391c.306.499 1.437.28 1.325-.258-.059-.281-.342-.432-.698-.368-.759.134-.864.239-.627.626M237 74.439c.298.301 1.325.247 1.325-.067 0-.15-.189-.43-.418-.623l-.42-.35-.344.42c-.189.231-.255.51-.143.623zm1.019 6.534c0-.075-.137-.137-.306-.137s-.305.147-.305.327.137.242.305.137c.169-.106.306-.253.306-.327m-.153 13.49c-.104-.17-.257-.31-.341-.31s-.069.14.036.31c.104.169.257.308.343.308s.069-.139-.035-.309zm-3.681 3.579c-.025.16.013.185.084.056.072-.128.255-.154.408-.059.155.095.28.016.28-.177 0-.415-.705-.248-.772.182zm-.147-34.239c0 .227.091.32.203.206a.295.295 0 0 0 0-.412c-.112-.113-.203-.02-.203.206m0 7.123c0 .17.145.31.323.31s.239-.14.135-.31-.25-.309-.326-.309-.135.14-.135.31zm0 6.815c0 .17.137.309.305.309a.309.309 0 0 0 0-.618.31.31 0 0 0-.305.309m0 6.675c0 .265.14.396.31.288.171-.105.232-.324.135-.481-.262-.43-.445-.35-.445.195zm0 7.26c.224 0 .315-.093.203-.206a.286.286 0 0 0-.407 0c-.112.113-.021.206.204.206m-3.371-31.28c0 .227.092.32.204.206a.295.295 0 0 0 0-.412c-.112-.113-.204-.02-.204.206m0 6.814c0 .227.092.32.204.206a.295.295 0 0 0 0-.412c-.112-.113-.204-.02-.204.206m0 6.668c0 .25.207.456.459.456s.458-.124.458-.276-.206-.355-.458-.456c-.28-.108-.459 0-.459.276m0 6.958c0 .17.146.31.324.31s.239-.14.135-.31c-.105-.17-.25-.309-.326-.309s-.135.14-.135.31zm-3.523-23.535c.105.17.319.308.477.308.372 0 .374-.84.002-1.07-.364-.227-.731.352-.481.759zm.459 6.657c0-.255-.135-.464-.296-.464s-.216.209-.119.464.231.463.298.463.119-.208.119-.463zm-.102 6.45c-.112-.113-.204-.02-.204.207s.092.32.204.206a.295.295 0 0 0 0-.412m-3.574-16.517c0 .226.092.32.204.206a.295.295 0 0 0 0-.412c-.112-.114-.204-.02-.204.206m0 6.814c0 .227.092.32.204.206a.295.295 0 0 0 0-.412c-.112-.113-.204-.02-.204.206m0 6.814c.224 0 .316-.092.204-.206a.287.287 0 0 0-.408 0c-.112.114-.02.206.204.206m-3.406-24.62.209.557c.115.306.286.476.38.38.094-.094 0-.344-.209-.555zm-.232 14.602c.186.227.462.335.612.242.423-.262.318-1.06-.138-1.06-.634 0-.845.365-.474.818m-3.1-17.352c0 .085.138.07.306-.036s.306-.26.306-.345-.138-.07-.306.036c-.168.105-.306.26-.306.345m.204 13.23c-.112-.114-.204-.021-.204.205 0 .227.092.32.204.206a.295.295 0 0 0 0-.412m-3.243-3.019c.016.36.087.435.186.188.09-.224.079-.49-.023-.595-.101-.103-.173.08-.16.407zm-3.698-16.886c0 .18.137.242.305.136s.306-.252.306-.327-.138-.136-.306-.136-.305.147-.305.327m.361 6.366c-.142-.09-.259.041-.259.288 0 .523.096.567.343.163.097-.16.059-.361-.084-.451m-3.426-9.791c.224 0 .316-.093.204-.206a.287.287 0 0 0-.408 0c-.112.113-.02.206.204.206m-.305 13.316c0 .227.091.32.203.206a.295.295 0 0 0 0-.411c-.112-.114-.203-.021-.203.206m-3.065-16.723c.224 0 .316-.093.204-.206a.287.287 0 0 0-.408 0c-.112.113-.02.206.204.206m-.296 7.123c.164 0 .296-.209.296-.464s-.053-.463-.12-.463c-.066 0-.198.208-.298.463-.097.255-.043.464.12.464zm-3.38-10.84c0 .17.145.31.324.31.178 0 .239-.14.135-.31-.105-.17-.25-.309-.326-.309s-.135.14-.135.31zm0 14.128c0 .085.138.07.306-.036.168-.105.306-.26.306-.345s-.138-.07-.306.036-.306.26-.306.345m-2.756-3.597c0 .226.092.32.204.206a.295.295 0 0 0 0-.412c-.112-.114-.204-.02-.204.206m-.306-13.626c.225 0 .316-.093.204-.206a.286.286 0 0 0-.407 0c-.113.113-.021.206.203.206m-.614 7.02c0 .227.123.412.273.412.374 0 .678-.873.369-1.066-.323-.2-.642.124-.642.651zm.51 6.4c-.112-.114-.204-.02-.204.206s.092.32.204.206a.295.295 0 0 0 0-.412m-3.574-3.51c0 .226.092.319.204.206a.295.295 0 0 0 0-.413c-.112-.113-.204-.02-.204.207m-2.909-3.407c-.105-.17-.25-.31-.326-.31s-.135.14-.135.31.145.309.323.309.24-.14.135-.31zm-.767-6.64c0 .075.138.137.306.137s.305-.147.305-.327-.137-.242-.305-.137c-.168.106-.306.253-.306.327m-3.064-3.077c0 .085.137.07.305-.036s.306-.26.306-.345-.138-.07-.306.036c-.168.105-.305.26-.305.345m.203 6.415c-.112-.113-.203-.02-.203.206 0 .227.091.32.203.206a.293.293 0 0 0 0-.412m-3.574-10.15c0 .266.141.397.311.29.171-.11.232-.325.135-.482-.262-.43-.446-.35-.446.193m.186 6.416c-.101-.103-.173.08-.16.407.015.36.087.435.186.188.089-.224.079-.49-.023-.595zm-3.451-3.078c-.112.114-.021.206.204.206s.316-.092.203-.206a.286.286 0 0 0-.407 0m-.102-6.605c.224 0 .316-.093.204-.206a.287.287 0 0 0-.408 0c-.112.113-.02.206.204.206m-3.37 3.407c0 .17.137.309.305.309.169 0 .306-.14.306-.31a.31.31 0 0 0-.306-.308.31.31 0 0 0-.305.309m-3.37-3.716c0 .226.091.319.203.206a.293.293 0 0 0 0-.412c-.112-.114-.203-.021-.203.206m-4.29-3.217c0 .064.275.118.614.118s.614-.126.614-.28-.275-.209-.614-.119c-.336.09-.614.217-.614.281m1.123 6.415c-.112-.113-.203-.02-.203.206 0 .227.091.32.203.206a.295.295 0 0 0 0-.412m-7.084.538c.227.369 1.365.379 1.365.013s-.896-.703-1.258-.476a.34.34 0 0 0-.107.466zm-3.23-3.41c0 .18.138.243.306.137s.305-.252.305-.327-.137-.136-.305-.136-.306.146-.306.327m-3.676-3.435c0 .165.207.22.459.121.252-.098.458-.232.458-.299s-.206-.12-.458-.12-.459.133-.459.3zm.51 6.307c-.112-.113-.204-.02-.204.206 0 .227.092.32.204.206a.295.295 0 0 0 0-.412m-3.574-3.314c0 .175.092.412.204.528.112.113.275.134.361.046.087-.088-.005-.325-.203-.525-.219-.222-.362-.24-.362-.047zm-3.37-3.294c0 .227.091.32.203.206a.293.293 0 0 0 0-.412c-.112-.113-.203-.02-.203.206m-2.925 3.386c-.262-.43-.446-.35-.446.194 0 .265.141.396.311.288.171-.108.232-.325.135-.482m-.446-6.482c0 .227.092.32.204.206a.295.295 0 0 0 0-.412c-.112-.113-.204-.02-.204.206m-3.37 3.425c0 .18.138.243.306.137s.306-.252.306-.327-.138-.137-.306-.137-.306.147-.306.327m-3.268 3.184c-.112.113-.02.206.204.206s.316-.093.204-.206a.287.287 0 0 0-.408 0m-.102-6.918c0 .227.092.32.204.206a.295.295 0 0 0 0-.412c-.112-.113-.204-.02-.204.206m-3.37 3.716c.224 0 .316-.092.204-.206a.287.287 0 0 0-.408 0c-.112.114-.02.206.204.206m-3.676-3.595c0 .047.202.085.446.085.245 0 .374-.118.285-.262-.137-.224-.731-.078-.731.177m-2.552 10.201a.287.287 0 0 0-.408 0c-.112.113-.02.206.204.206s.316-.093.204-.206m-.51-6.745c0 .266.14.397.311.289s.232-.325.135-.484c-.262-.43-.446-.35-.446.195m-3.217 3.235c.104.17.257.309.341.309s.069-.139-.035-.309-.257-.31-.342-.31c-.084 0-.068.14.036.31m-3.013 3.51a.287.287 0 0 0-.408 0c-.112.113-.02.206.204.206s.316-.093.204-.206m-.51-6.917c0 .17.145.309.324.309.178 0 .239-.14.135-.31-.105-.17-.25-.308-.324-.308s-.135.139-.135.309m-3.37 3.716c0 .227.092.32.204.206a.295.295 0 0 0 0-.412c-.112-.113-.204-.02-.204.206m-3.217-3.716c.104.17.257.309.341.309s.069-.14-.036-.31c-.104-.17-.257-.308-.341-.308s-.069.139.036.309m.209 6.693c-.143-.09-.26.041-.26.289 0 .522.096.566.344.162.096-.16.058-.36-.084-.45m-3.732-2.786c0 .085.137.07.305-.036s.306-.26.306-.346-.138-.07-.306.037c-.168.105-.305.26-.305.345m-3.371 9.719c0 .226.092.32.204.206a.295.295 0 0 0 0-.412c-.112-.114-.204-.02-.204.206m-3.344-10.039c.015.36.086.435.186.188.089-.224.076-.49-.026-.592-.102-.103-.173.08-.16.407zm-.026 6.632c0 .17.146.309.324.309s.239-.14.135-.31c-.105-.17-.25-.308-.324-.308-.073 0-.135.139-.135.309m-3.064-3.098c.224 0 .316-.093.204-.206a.287.287 0 0 0-.408 0c-.112.113-.02.206.204.206m-.306 6.502c0 .34.145.62.324.62.178 0 .239-.138.135-.308-.105-.17-.036-.31.153-.31.188 0 .257-.138.152-.308-.321-.523-.766-.343-.766.309zm.179 7.098c.356-.016.43-.088.186-.188-.222-.09-.487-.078-.589.025s.079.176.403.163m-3.243 2.812a.31.31 0 0 0-.306.309c0 .17.138.309.306.309a.31.31 0 0 0 .305-.309.31.31 0 0 0-.305-.309m-1.073-13.307.459.302c.57.373.537.373.767 0 .104-.173-.125-.31-.517-.304l-.709.005zm-2.501 17.126c-.112.114-.02.206.204.206s.316-.093.203-.206a.287.287 0 0 0-.407 0m-.102-13.729c0 .227.092.32.204.206a.294.294 0 0 0 0-.412c-.112-.113-.204-.02-.204.206m-3.37 3.716c0 .227.092.32.204.206a.295.295 0 0 0 0-.412c-.112-.113-.204-.02-.204.206m-3.37 9.91c0 .17.145.31.323.31s.24-.14.135-.31-.25-.309-.323-.309-.135.14-.135.31m0 6.814c0 .17.145.31.323.31s.24-.14.135-.31-.25-.309-.323-.309-.135.14-.135.31m-2.91 3.407c-.104-.17-.257-.309-.34-.309-.085 0-.07.14.035.31.104.17.257.309.341.309s.069-.14-.035-.31m-.766-6.62c0 .084.137.069.305-.037.169-.105.306-.26.306-.345s-.137-.07-.305.036c-.169.106-.306.26-.306.345m-.153 13.445.459.301c.57.374.537.374.766 0 .105-.172-.125-.309-.517-.303l-.708.005zm-2.4 10.314a.287.287 0 0 0-.407 0c-.112.113-.02.206.204.206s.316-.093.203-.206m-.509-13.729c0 .17.145.31.323.31s.24-.14.136-.31c-.105-.17-.25-.309-.324-.309s-.135.14-.135.31m-.306 6.856c0 .26.1.577.224.7.123.124.276.064.342-.131.064-.196-.036-.51-.224-.7-.25-.253-.342-.22-.342.128zm-2.756 3.211c-.168.106-.306.33-.306.5s.138.224.306.118c.168-.105.306-.33.306-.502 0-.173-.138-.224-.306-.118zm.026 7.417a.35.35 0 0 0 .112-.474.34.34 0 0 0-.47-.11.35.35 0 0 0-.111.473c.1.162.31.211.469.11m-.128 6.47c-.112-.114-.204-.022-.204.205s.092.32.204.206a.294.294 0 0 0 0-.412m-.51-20.372c0 .075.138.137.306.137.169 0 .306-.147.306-.327s-.137-.242-.306-.137c-.168.106-.305.253-.305.327m-3.352 3.72.41.499.416-.57.415-.569-.655-.102c-.873-.137-1.085.133-.586.741m.902 20.09c0-.076-.137-.137-.306-.137s-.305.146-.305.327c0 .18.137.242.305.136.169-.105.306-.252.306-.327m-.153 13.489c-.104-.17-.25-.31-.323-.31s-.135.14-.135.31.145.309.323.309.24-.14.135-.31m-.254-20.235a.295.295 0 0 0 0-.412c-.112-.113-.204-.02-.204.206 0 .227.091.32.204.206m-3.472 23.52c0 .238.264.43.585.43s.535-.161.47-.36c-.172-.52-1.055-.58-1.055-.07m-.102-26.96c0 .265.14.396.31.288.171-.108.232-.324.135-.484-.262-.43-.445-.35-.445.196m-3.493 23.626c-.092.149-.079.36.03.468.291.294.706.24.706-.092 0-.42-.54-.696-.736-.376m.148-13.397c.015.36.087.433.186.188.089-.224.076-.492-.023-.595-.102-.103-.173.08-.16.407zm-.023 6.631c.224 0 .316-.092.204-.206a.287.287 0 0 0-.408 0c-.112.114-.02.206.204.206m-3.37 3.717c.224 0 .316-.093.204-.207a.287.287 0 0 0-.408 0c-.112.114-.02.207.204.207m-.306 6.62c0 .276.207.503.459.503s.458-.052.458-.116-.206-.291-.458-.502l-.459-.387zm-3.062 3.29c0 .226.092.319.204.205a.294.294 0 0 0 0-.412c-.112-.113-.204-.02-.204.206m-3.217-3.408c.104.17.257.31.341.31s.07-.14-.035-.31-.258-.309-.342-.309-.068.14.036.31m-3.523 3.734c0 .18.138.242.306.137.168-.106.305-.253.305-.327s-.137-.137-.305-.137-.306.147-.306.327m-2.91 3.078c-.104-.17-.256-.31-.34-.31s-.07.14.035.31.258.309.342.309.068-.14-.036-.31m-.766-6.657c0 .255.138.463.306.463s.306-.208.306-.463-.138-.464-.306-.464-.306.209-.306.464m-3.212-3.248c.107.173.32.234.476.137.426-.266.347-.451-.193-.451-.263 0-.39.142-.285.314zm.609 6.498c-.105-.17-.25-.31-.324-.31s-.135.14-.135.31.145.309.324.309c.178 0 .24-.14.135-.31m-3.676-3.099c.104.17.25.31.324.31.073 0 .135-.14.135-.31a.317.317 0 0 0-.324-.308c-.178 0-.24.139-.135.308m-.153 6.503c0 .17.145.31.324.31.178 0 .24-.14.135-.31s-.25-.309-.324-.309-.135.14-.135.31m-3.345-3.227c.016.36.087.436.186.188.09-.224.077-.489-.025-.595-.102-.103-.173.08-.16.407m-.023 6.632c0 .226.092.319.204.206a.294.294 0 0 0 0-.412c-.112-.114-.203-.021-.203.206m-3.217-3.098c.105.17.258.309.342.309s.068-.14-.036-.31-.257-.308-.341-.308-.07.139.035.309m-.435 6.685c.015.361.086.435.186.188.089-.224.076-.492-.023-.595-.102-.103-.174.08-.16.407zm-2.91-10.116c.357-.015.431-.087.187-.188-.222-.09-.487-.08-.586.023-.102.104.079.176.402.163zm.026 6.323c-.112-.114-.204-.021-.204.206s.092.319.204.206a.294.294 0 0 0 0-.412m-3.574 3.613c0 .17.214.309.479.309s.392-.139.288-.309-.319-.309-.476-.309c-.158 0-.288.139-.288.309zm.446 6.791c-.262-.43-.446-.35-.446.196 0 .265.14.396.31.288.172-.108.233-.324.136-.484m3.383 10.242c-.105-.17-.25-.309-.324-.309s-.135.139-.135.309.146.309.324.309.24-.139.135-.309m.153-6.485c0-.159-.138-.378-.306-.481-.168-.106-.306.025-.306.291s.138.484.306.484a.3.3 0 0 0 .306-.291zm2.96 9.995c-.112-.113-.204-.021-.204.206s.092.319.204.206a.295.295 0 0 0 0-.412m.178-7.149c-.211-.072-.382.103-.382.386s.137.469.306.412c.463-.157.509-.654.076-.801zm3.447 10.453c-.105-.17-.25-.309-.324-.309s-.135.139-.135.309.145.309.323.309.24-.139.136-.309m0-6.814c-.105-.17-.25-.309-.324-.309s-.135.139-.135.309.145.309.323.309.24-.139.136-.309m3.357 10.198c-.262-.43-.446-.35-.446.196 0 .265.14.396.31.288.172-.108.233-.324.136-.484m.064-6.688a.287.287 0 0 0-.408 0c-.112.113-.02.206.204.206s.316-.093.204-.206m3.044 9.889c-.102-.103-.174.08-.16.407.014.361.086.435.185.188.09-.224.077-.492-.023-.595zm.122-6.433c0-.255-.133-.463-.296-.463s-.216.208-.12.463c.098.255.23.464.296.464.067 0 .12-.209.12-.464m-.614 20.286c0 .17.138.309.306.309a.31.31 0 0 0 .305-.309.31.31 0 0 0-.305-.309.31.31 0 0 0-.306.309m-2.756-3.407c.224 0 .316-.093.204-.206a.286.286 0 0 0-.408 0c-.112.113-.02.206.204.206m.204 6.917a.287.287 0 0 0-.408 0c-.112.113-.02.206.204.206s.316-.093.204-.206m-3.88-3.338c0 .266.14.394.31.289.171-.108.233-.325.136-.482-.263-.43-.446-.35-.446.196zm0 6.639c0 .17.145.309.323.309s.24-.139.136-.309c-.105-.17-.25-.309-.324-.309s-.135.139-.135.309m-3.52 3.722c.106.172.32.234.476.136.425-.265.346-.45-.194-.45-.262 0-.39.141-.285.314zm-3.22-3.395c0 .181.137.243.305.137.169-.106.306-.252.306-.327s-.137-.137-.306-.137-.305.147-.305.327m.186 6.261c-.102-.103-.174.08-.16.407.014.36.086.435.185.188.09-.224.077-.492-.025-.592zm-3.554-3.008c0 .265.14.397.31.289.172-.109.233-.325.136-.482-.262-.43-.446-.35-.446.193m0 6.639c0 .17.145.309.324.309.178 0 .24-.139.135-.309s-.25-.309-.324-.309-.135.139-.135.309m0 6.814c0 .17.145.31.324.31.178 0 .24-.14.135-.31s-.25-.309-.324-.309-.135.14-.135.309m.459 6.815c-.105-.17-.25-.309-.324-.309s-.135.139-.135.309.145.309.324.309c.178 0 .24-.139.135-.309m-.324 7.432c.262 0 .476-.139.476-.309s-.13-.309-.287-.309c-.158 0-.375.139-.48.309s.026.309.289.309zm-3.643-10.502a.34.34 0 0 0 .47.111.35.35 0 0 0 .111-.474.34.34 0 0 0-.468-.111.35.35 0 0 0-.113.474m-3.232-10.384c0 .266.14.397.31.289.171-.108.233-.325.136-.482-.263-.43-.446-.35-.446.193m.362 13.333c-.143-.09-.26.041-.26.288 0 .523.097.567.344.162.097-.159.058-.36-.084-.45m.25-6.366c0-.16-.138-.379-.306-.482-.169-.106-.306.026-.306.291s.137.482.305.482a.3.3 0 0 0 .306-.291m2.717 16.706h-.593l.328.62c.181.34.377.621.436.621s.178-.278.267-.621c.12-.461.01-.62-.435-.62zm.403-6.933c-.143-.09-.26.041-.26.288 0 .523.097.567.344.162.097-.159.058-.36-.084-.45m.25-26.997c0-.075-.138-.137-.306-.137s-.306.147-.306.327.138.243.306.137.305-.252.305-.327m3.064 37.11c-.35-.026-.612.144-.612.399 0 .502.059.523.742.258.672-.26.606-.6-.128-.657zm2.96 3.734a.287.287 0 0 0-.408 0c-.112.114-.02.206.204.206s.316-.092.204-.206m.288 6.485c-.102-.103-.174.08-.16.407.014.36.086.435.185.188.09-.224.077-.49-.025-.593zm.428-13.42a.3.3 0 0 0-.306-.291c-.168 0-.306.216-.306.482 0 .265.138.396.306.291s.306-.322.306-.482m0-6.657c0-.075-.138-.137-.306-.137s-.306.147-.306.327.138.242.306.137c.168-.106.306-.253.306-.327m2.616 3.6c.262.43.446.35.446-.193 0-.265-.14-.397-.311-.289s-.232.325-.135.482m.598 20.108c-.104-.17-.25-.309-.323-.309s-.135.139-.135.309.145.309.323.309.24-.139.135-.309m.153-6.696c0-.085-.137-.069-.306.036s-.305.26-.305.348.137.069.306-.036.305-.26.305-.345zm0-6.796c0-.075-.137-.136-.306-.136s-.305.146-.305.327c0 .18.137.242.306.136s.305-.252.305-.327m3.217 10.082c-.104-.17-.25-.309-.323-.309s-.135.139-.135.309.145.309.323.309.24-.139.136-.309m-.435-6.631c.015.36.087.435.186.188.09-.224.076-.489-.023-.592-.102-.103-.173.079-.16.406zm3.243 16.647c-.112-.114-.204-.021-.204.206s.092.319.204.206a.294.294 0 0 0 0-.412m.102-6.279c0 .18.137.242.305.137.168-.106.306-.253.306-.328 0-.074-.138-.136-.306-.136s-.305.147-.305.327m.203-6.935a.294.294 0 0 0 0-.412c-.112-.114-.203-.021-.203.206s.091.319.203.206m.408 20.231a.31.31 0 0 0-.306-.309.31.31 0 0 0-.305.309c0 .17.137.309.305.309a.31.31 0 0 0 .306-.309m3.24 3.812c-.094-.647-.79-.935-.79-.327 0 .242.092.53.204.646.37.374.663.216.584-.319zm-.761-13.533.402.491.206-.571c.258-.716.14-.858-.504-.608l-.507.196zm1.057 6.379c-.293-.297-1.083-.343-1.083-.062 0 .141.173.319.382.396.459.165.958-.072.7-.334m3.102 10.26a.286.286 0 0 0-.407 0c-.112.113-.02.206.204.206s.315-.093.203-.206m-.369-6.938c.303.494.479.399.27-.147-.1-.263-.247-.412-.326-.33-.082.08-.056.296.056.479zm.132-7.278c-.484-.301-.92.536-.527 1.015.178.216.446.319.596.224.38-.237.339-.984-.069-1.239m3.557 17.829c-.105-.17-.258-.309-.342-.309s-.069.139.036.309c.104.17.257.309.341.309s.069-.139-.035-.309m-.627-7.317-.515.201.383.466.382.464.433-.363c.552-.464.035-1.046-.68-.768zm.708-6.562c.066-.2-.097-.368-.364-.368a.49.49 0 0 0-.484.49c0 .545.66.45.848-.124zm2.998 16.974c-.262 0-.476.139-.476.309s.13.309.288.309.374-.139.479-.309-.026-.309-.288-.309zm.033-6.605a.294.294 0 0 0 0-.412c-.112-.114-.203-.021-.203.206s.091.319.203.206m3.182 9.848a.387.387 0 0 0-.14.522c.13.212.3.206.52-.015.392-.397.089-.801-.383-.507zm-.155-6.318c.247.405.344.361.344-.162 0-.247-.118-.378-.26-.288s-.181.291-.084.45m4.121 10.008c0-.085-.137-.07-.306.036s-.305.26-.305.348.137.069.305-.036c.169-.106.306-.26.306-.345zm-.306-6.621c.225 0 .317-.093.204-.206a.287.287 0 0 0-.407 0c-.112.113-.02.206.203.206m-3.573 16.878c0 .224.183.335.407.248s.408-.199.408-.248-.184-.159-.408-.247c-.224-.087-.407.023-.407.247m-6.843.173c0 .18.138.242.306.136s.306-.252.306-.327c0-.074-.138-.136-.306-.136s-.306.147-.306.327m-3.37 3.077c0 .17.146.31.324.31s.24-.14.135-.31-.25-.309-.324-.309c-.073 0-.135.139-.135.309m-3.37-3.234c0 .265.138.396.306.291s.306-.322.306-.482a.3.3 0 0 0-.306-.291c-.168 0-.306.217-.306.482m0 27.254c0 .266.14.394.31.289.172-.108.233-.325.136-.482-.262-.43-.446-.35-.446.196zm-6.89-27.422c.101.168.316.307.476.307.44 0 .344-.222-.186-.428-.273-.105-.395-.054-.288.121zm-3.526 3.578c0 .074.138.136.306.136s.305-.147.305-.327-.137-.242-.305-.137c-.168.106-.306.253-.306.33zm-6.432.154c0 .18.137.242.306.137.168-.106.305-.253.305-.328 0-.074-.137-.136-.305-.136-.169 0-.306.147-.306.33zm-6.74-.33c0 .17.145.31.323.31s.24-.14.135-.31-.25-.309-.323-.309-.135.139-.135.309m-3.253 16.724c-.252 0-.375.14-.27.309.104.17.395.31.65.31.254 0 .374-.14.27-.31-.105-.169-.396-.309-.65-.309m.086 7.227c-.112-.114-.203-.021-.203.206s.091.319.203.206a.294.294 0 0 0 0-.412m-.34-20.206c.098.162.31.211.468.111a.35.35 0 0 0 .112-.474.34.34 0 0 0-.469-.113.35.35 0 0 0-.112.473zm.264-6.531a.486.486 0 0 0 .484-.489c0-.546-.66-.451-.848.121-.066.203.097.368.364.368m-3.192 9.91c.224 0 .316-.093.204-.206a.286.286 0 0 0-.408 0c-.112.113-.02.206.204.206m-.305 6.814c0 .227.091.319.203.206a.294.294 0 0 0 0-.412c-.112-.113-.203-.021-.203.206m-.153 6.814c.104.17.25.309.323.309s.135-.139.135-.309a.317.317 0 0 0-.323-.309c-.179 0-.24.139-.135.309m-6.736-33.749.227.371.247-.407c.324-.528.005-1.048-.392-.644a.59.59 0 0 0-.082.68m-6.406-.268c.13.211.3.206.52-.015.392-.397.089-.801-.383-.508a.39.39 0 0 0-.14.523zm-3.554 3.358c0 .17.138.309.306.309a.31.31 0 0 0 .306-.309.31.31 0 0 0-.306-.309.31.31 0 0 0-.306.309m.459 26.943c-.105-.17-.25-.309-.324-.309s-.135.139-.135.309.146.309.324.309.24-.139.135-.309m0 6.814c-.105-.17-.257-.309-.342-.309-.084 0-.068.139.036.309s.257.309.341.309.07-.139-.035-.309m.05 13.729a.287.287 0 0 0-.407 0c-.112.114-.02.206.204.206s.316-.092.204-.206m.103-6.95c0-.17-.138-.225-.306-.119s-.306.33-.306.5.138.224.306.118c.168-.105.306-.329.306-.499m.305-33.688c0-.152-.206-.358-.458-.456-.28-.108-.459 0-.459.276 0 .25.207.456.459.456s.458-.124.458-.276m6.28 40.535c-.105-.17-.25-.309-.324-.309s-.135.139-.135.309.145.309.324.309c.178 0 .239-.139.135-.309m13.63 0a.31.31 0 0 0-.305-.309.31.31 0 0 0-.306.309c0 .17.138.309.306.309a.31.31 0 0 0 .305-.309m1.35-11.725H14.47v-14.973c.036.018.077.008.123-.039a.295.295 0 0 0 0-.412c-.046-.046-.09-.056-.123-.038v-20.42c.041.116.115.247.22.374.443.54.81.6 1.07.177.198-.324-1.012-1.099-1.287-.821v.005-.412H4.465v24.594a.27.27 0 0 0 0 .229v21.208h19.238v-9.467zm-8.839-1.563c.1.162.311.211.469.11.16-.1.209-.311.112-.473a.337.337 0 0 0-.469-.111.35.35 0 0 0-.112.474M15 257.976c.588.383.695.383.458 0a.7.7 0 0 0-.555-.304c-.22.002-.18.123.094.304zm.025 13.806c.016.36.087.435.186.188.09-.224.077-.492-.025-.595s-.174.08-.16.407m.589-6.665c0-.16-.138-.379-.306-.484-.168-.106-.306.026-.306.291s.138.481.306.481a.3.3 0 0 0 .306-.29zm0-13.801c0-.255-.138-.464-.306-.464s-.306.209-.306.464.138.464.306.464.306-.209.306-.464m9.241 17.226c.546.348.563.343.563-.183 0-.288-.178-.386-.484-.268l-.484.188.408.263zm.767 20.193a.287.287 0 0 0-.407 0c-.112.113-.02.206.203.206.224 0 .316-.093.204-.206m2.993 3.304c-.262 0-.39.142-.285.314.107.173.321.235.479.137.425-.265.346-.451-.194-.451m13.804 0c-.104-.17-.25-.309-.323-.309s-.135.139-.135.309.145.309.323.309.24-.139.135-.309m3.37 10.219c-.104-.17-.25-.309-.323-.309s-.135.139-.135.309.145.309.324.309c.178 0 .239-.139.135-.309m-.147-6.351c.17-.108.232-.324.135-.481-.263-.43-.446-.35-.446.195 0 .266.14.395.31.289zm.148-7.275c-.105-.17-.25-.309-.324-.309s-.135.139-.135.309.145.309.324.309c.178 0 .239-.139.135-.309m1.258-33.211H37.044v24.96a.75.75 0 0 1-.225.548.73.73 0 0 1-.545.23.73.73 0 0 1-.545-.23.74.74 0 0 1-.224-.548v-14.934a.6.6 0 0 0 0-.178v-6.899q.132.036.242 0c.542-.209.356-.711-.242-.904v-2.045H25.5v6.006a.5.5 0 0 0-.219-.047c-.262 0-.478.139-.478.309s.13.309.287.309c.13 0 .293-.095.408-.221v13.126c-.232-.327-.39-.226-.39.278 0 .266.14.394.311.289a.3.3 0 0 0 .079-.067v6.209q.002.122.008.245a.29.29 0 0 0-.296.066c-.112.114-.02.206.204.206a1 1 0 0 0 .1-.007 9.1 9.1 0 0 0 1.105 3.899q1.123 2.073 3.495 3.371 2.373 1.295 5.963 1.295 3.593 0 6.06-1.295 2.469-1.298 3.686-3.371 1.22-2.075 1.22-4.409v-26.191zm1.824 30.116c.262 0 .39-.142.285-.315-.176-.285-.761-.149-.761.178 0 .075.213.137.476.137m.17 6.811c.169 0 .222-.139.118-.309s-.326-.309-.497-.309-.222.139-.117.309c.104.17.326.309.496.309m3.488 9.91c-.105-.17-.257-.309-.342-.309-.084 0-.068.139.036.309s.258.309.342.309.068-.139-.036-.309m6.74 0c-.104-.17-.25-.309-.323-.309s-.135.139-.135.309.145.309.323.309.24-.139.135-.309m3.243-9.771a.35.35 0 0 0 .112-.474.34.34 0 0 0-.469-.11.35.35 0 0 0-.112.474c.1.162.31.211.469.11m-.23 6.47c-.111.113-.02.206.204.206.225 0 .316-.093.204-.206a.286.286 0 0 0-.407 0m.51 6.09a.31.31 0 0 0-.306-.309.31.31 0 0 0-.305.309c0 .17.137.309.305.309a.31.31 0 0 0 .306-.309m6.585-13.008c-.104-.17-.25-.309-.323-.309s-.136.139-.136.309.146.309.324.309.24-.139.135-.309m1.396-28.449q0-2.913-1.261-5.238c.008-.029.015-.054.015-.085 0-.126-.069-.193-.168-.186a11 11 0 0 0-.542-.842c-.772-1.074-1.735-1.826-2.89-2.266.115-.116.149-.291.065-.425-.263-.43-.446-.35-.446.196q0 .054.007.1a7.7 7.7 0 0 0-2.287-.327c-1.452 0-2.78.541-3.974 1.62h-.066v-1.167h-.341c.13-.116.229-.286.229-.419a.3.3 0 0 0-.306-.291c-.168 0-.306.218-.306.484q.001.142.049.226h-9.324v9.967a.7.7 0 0 0-.068-.147c-.105-.17-.258-.309-.342-.309s-.069.139.036.309c.104.17.257.309.341.309.016 0 .023-.01.033-.018v6.317a.32.32 0 0 0-.239-.105c-.178 0-.24.139-.135.309s.25.309.323.309a.07.07 0 0 0 .051-.024v27.044a.7.7 0 0 0-.221-.232c-.168-.106-.306.026-.306.291s.138.482.306.482a.3.3 0 0 0 .221-.093v2.073h10.001v-5.761c.08-.057.097-.147.036-.247-.01-.016-.023-.026-.036-.039v-6.271h.13q1.732 1.556 3.91 1.556 3.592 0 5.549-2.722 1.956-2.723 1.956-6.354zm-1.722-19.243c-.263 0-.39.142-.285.314.107.173.32.235.476.137.425-.265.346-.451-.194-.451zm0 6.814c-.263 0-.39.142-.285.315.107.172.32.234.476.136.425-.265.346-.451-.194-.451zm.708-13.394c-.071-.213-.387-.437-.706-.499l-.578-.114.41.5c.487.592 1.055.664.871.113zm2.522 9.526c-.17.109-.232.325-.135.485.262.43.446.35.446-.196 0-.265-.14-.397-.311-.289m.464-5.931c.252-.097.458-.218.458-.267s-.206-.17-.458-.268c-.278-.108-.459 0-.459.268 0 .267.183.373.459.267m-.571 13.361c.097.255.278.464.4.464s.222-.209.222-.464-.179-.463-.4-.463-.324.198-.222.463m.436 20.595c.178 0 .239-.139.135-.309-.105-.17-.25-.309-.324-.309s-.135.139-.135.309.145.309.324.309m-.12 6.605c-.112-.113-.204-.02-.204.206 0 .227.092.32.204.206a.294.294 0 0 0 0-.412m.255-13.728c-.105-.17-.25-.309-.324-.309s-.135.139-.135.309.145.309.324.309c.178 0 .239-.139.135-.309m0-6.815c-.105-.17-.25-.309-.324-.309s-.135.139-.135.309.145.309.324.309c.178 0 .239-.139.135-.309m.152 27.389c0-.075-.137-.137-.305-.137s-.306.147-.306.33.138.242.306.136.305-.252.305-.327zm3.12 3.368c-.22-.09-.486-.08-.585.023-.102.103.08.175.403.163.356-.016.43-.088.186-.188zm6.836-.098c-.105-.17-.258-.309-.342-.309s-.069.139.036.309c.104.17.257.309.341.309s.069-.139-.035-.309m.165-36.618h-10.07v34.36h10.07zm-4.088-.742c.29.294.705.24.705-.092 0-.42-.54-.696-.736-.376-.092.149-.079.36.03.468m4.088-10.927h-.227a.15.15 0 0 0-.073-.023.5.5 0 0 0-.143.023h-9.627v9.4h10.07zm-3.844-2.387c.252-.098.38-.304.285-.461-.198-.324-.743-.064-.743.355 0 .155.206.201.458.106m10.403 50.654c-.262-.43-.445-.351-.445.195 0 .266.14.394.31.289.171-.108.232-.325.135-.482zm6.285-.289c-.153 0-.199.209-.102.464s.3.383.456.288c.32-.201.064-.752-.352-.752zm-.145-26.631c.104.17.326.309.496.309.171 0 .222-.139.118-.309s-.327-.309-.497-.309-.222.139-.117.309m.766 20.111a.3.3 0 0 0-.305-.291c-.168 0-.306.216-.306.481s.138.397.306.291c.168-.105.305-.322.305-.481m-.305-6.485c.224 0 .316-.093.203-.206a.287.287 0 0 0-.407 0c-.112.113-.02.206.204.206m.305-7.296c0-.075-.137-.136-.305-.136s-.306.149-.306.329.138.242.306.137c.168-.106.305-.253.305-.327zm6.33 20.404c-.112-.113-.203-.02-.203.206 0 .227.091.32.203.206a.293.293 0 0 0 0-.412m3.837-30.157c.14-.012.247-.1.247-.275 0-.237-.25-.482-.487-.567a9 9 0 0 0-.761-1.653q-1.219-2.074-3.686-3.371a10.6 10.6 0 0 0-2.37-.878q.085-.06.176-.15c.444-.448.316-1.143-.211-1.143-.324 0-.606.752-.49 1.174a16 16 0 0 0-3.165-.299 62 62 0 0 0-2.935.078l-.013-.029c-.153-.249-.624-.175-.739.067a64 64 0 0 0-6.893.794v34.359H95.33v-24.96q0-.323.224-.551a.73.73 0 0 1 .545-.226.73.73 0 0 1 .545.226.76.76 0 0 1 .224.551v24.96h10.004v-26.191c0-.654-.077-1.29-.219-1.913zm-20.916-14.061a.35.35 0 0 0-.112.474.34.34 0 0 0 .468.111.35.35 0 0 0 .112-.474.34.34 0 0 0-.468-.111m.494-6.466c.53 0 .45-.569-.105-.755-.201-.067-.364.075-.364.317s.211.44.469.44zm-.023 13.399c-.263-.43-.446-.35-.446.196 0 .265.14.394.31.288.171-.108.233-.324.136-.481zm3.23-3.075c.224 0 .316-.093.204-.206a.287.287 0 0 0-.408 0c-.112.113-.02.206.204.206m19.91 27.718c.168-.106.306-.252.306-.327s-.138-.137-.306-.137-.306.15-.306.33.138.242.306.137zm0-14.401c0 .227.092.319.204.206a.295.295 0 0 0 0-.412c-.112-.113-.204-.021-.204.206m.204-13.42a.295.295 0 0 0 0-.412c-.112-.113-.204-.021-.204.206s.092.319.204.206m-.204 20.543c0 .227.092.32.204.206a.295.295 0 0 0 0-.412c-.112-.113-.204-.02-.204.206m.204 20.232c-.112-.113-.204-.021-.204.206s.092.319.204.206a.295.295 0 0 0 0-.412m.305-6.812a.287.287 0 0 0-.407 0c-.112.114-.021.206.204.206s.315-.092.203-.206m.24-41.009a.34.34 0 0 0-.469-.113.35.35 0 0 0-.112.474.34.34 0 0 0 .469.11c.16-.1.209-.314.112-.473zm2.619 24.182c.168 0 .305-.147.305-.327s-.137-.242-.305-.136c-.169.105-.306.252-.306.329s.137.137.306.137zm0-27.097c.168-.106.305-.26.305-.345s-.137-.07-.305.036c-.169.105-.306.26-.306.347 0 .088.137.07.306-.036zm.509 47.64a.29.29 0 0 0-.408 0c-.112.114-.02.206.204.206s.316-.092.204-.206m.102-41.135c0-.255-.138-.464-.306-.464s-.305.209-.305.464.137.464.305.464.306-.209.306-.464m3.202 50.921c-.263-.43-.446-.35-.446.194 0 .265.14.396.311.288s.232-.324.135-.482m3.128 3.222c-.112-.113-.204-.02-.204.206 0 .227.092.32.204.206a.295.295 0 0 0 0-.412m2.756-3.407c-.112-.113-.204-.021-.204.206s.092.319.204.206a.295.295 0 0 0 0-.412m1.327.183c0-.147-.206-.186-.458-.088s-.459.299-.459.446.207.185.459.087c.252-.097.458-.298.458-.445m9.647 3.425c-.176-.286-.761-.149-.761.178 0 .074.214.136.476.136s.392-.141.285-.314m6.488.417c-.112-.113-.203-.02-.203.206 0 .227.091.32.203.206a.295.295 0 0 0 0-.412m6.741-7.123c-.113-.113-.204-.021-.204.206s.091.319.204.206a.295.295 0 0 0 0-.412m-.181-13.549c.015.361.086.435.186.188.089-.224.079-.489-.023-.592s-.173.08-.161.407zm.741 7.25c-.104-.17-.326-.309-.497-.309s-.221.139-.117.309.326.309.497.309.221-.139.117-.309m1.498-20.005-3.021-1.048v-11.172h-13.384v6.809l-2.158-.873q-.171-.086-.69-.306a4 4 0 0 1-.95-.567q-.431-.349-.431-1.223v-11.695q0-1.049.561-1.573.56-.523 1.51-.523.952 0 1.554.523.604.524.604 1.573v3.928h13.384v-4.888q0-6.022-3.798-9.951a9 9 0 0 0-.658-.621c-1.839-1.602-4.289-2.616-7.346-3.054-.005-.283-.293-.456-.764-.456s-.711.111-.757.291a29 29 0 0 0-2.216-.085q-2.804 0-5.085.474-4.256.881-6.699 3.41-3.757 3.884-3.758 9.994v8.553q0 5.815 3.149 9.335.539.603 1.169 1.141v.173q-4.318 3.666-4.318 10.476v6.982q.002 4.11 1.705 7.213a.3.3 0 0 0-.087.059c-.112.114-.02.206.204.206h.033a13 13 0 0 0 1.905 2.519c2.415 2.503 6.17 3.791 11.244 3.876q-.009.053-.01.111c0 .17.145.309.324.309.178 0 .239-.139.135-.309q-.036-.057-.074-.106h.165q7.943 0 11.744-3.927 3.798-3.928 3.798-9.951v-3.928l3.021 1.049V269.25zm-32.565-4.278c.015.361.086.435.186.188.089-.224.076-.492-.026-.592-.102-.103-.173.08-.16.407zm-.026-27.123c.224 0 .316-.093.204-.206a.29.29 0 0 0-.408 0c-.112.113-.02.206.204.206m3.37-3.407c.224 0 .316-.093.204-.206a.29.29 0 0 0-.408 0c-.112.113-.02.206.204.206m2.965-10.113c.112.113.454.203.765.203.662 0 .756-.788.124-1.032-.479-.186-1.212.499-.886.829zm.609-6.711a.295.295 0 0 0 0-.412c-.112-.114-.204-.021-.204.206s.092.319.204.206m3.931 2.868c0-.239-.242-.481-.535-.538-.528-.103-.747.554-.326.979.321.324.861.049.861-.441m-.614 6.526c-.461 0-.629.654-.265 1.025.285.289.723-.059.723-.577a.453.453 0 0 0-.458-.445zm3.599-3.221c-.117-.191-.237-.168-.313.064-.069.206-.283.276-.479.157-.196-.118-.163.026.076.322l.433.538.237-.386c.13-.214.151-.525.049-.695zm-.779 7.362c.117.119.402.139.634.049.234-.09.481-.165.553-.165.071 0 .127-.208.127-.463s-.191-.464-.423-.464c-.53 0-1.177.758-.894 1.046zm10.673 3.32c.148.242.298.242.54 0 .24-.242.24-.43 0-.672-.407-.412-.858.152-.54.672m3.403 3.585a.295.295 0 0 0 0-.412c-.112-.114-.203-.021-.203.206s.091.319.203.206m.614-.309a.295.295 0 0 0 0-.412c-.112-.114-.203-.021-.203.206s.091.319.203.206m-3.879 16.206c-.168 0-.306.278-.306.621s.138.62.306.62.305-.278.305-.62c0-.343-.137-.621-.305-.621m-10.276-2.895c-.242.096-.367.297-.273.449.234.383.347.347.545-.173q.172-.448-.272-.278zm16.44-2.951c-.063.191.041.296.23.232.384-.129.473-.58.114-.58-.127 0-.28.158-.344.348m.421-7.162c.104.17.257.309.341.309s.069-.139-.036-.309c-.104-.17-.257-.309-.341-.309s-.069.139.036.309m-.459 13.814c0 .067.283.121.632.121s.55-.134.451-.296c-.163-.268-1.08-.121-1.08.175zm0 6.469c-.242.15-.234.335.023.647.464.566.787.553 1.011-.039.201-.528-.502-.94-1.034-.608m4.04 30.912c-.221-.09-.486-.08-.588.023s.079.175.402.162c.357-.015.431-.087.186-.188zm-.43-19.609c.453 0 .662-.765.349-1.267-.169-.268-.276-.296-.278-.074-.003.198-.089.582-.191.852s-.048.489.12.489m-.087-7.432c.104.17.25.309.323.309s.136-.139.136-.309a.32.32 0 0 0-.324-.309c-.178 0-.239.139-.135.309m.629 20.013c-.262.1-.476.239-.476.306 0 .25.583.111.764-.185.107-.175-.015-.227-.288-.121m.443-6.245c0-.036-.206-.24-.458-.451l-.459-.386v.45c0 .248.207.451.459.451s.458-.028.458-.064m-.486-21.633c-.808-.312-1.129.134-.558.773.29.324.642.589.785.589.466 0 .27-1.166-.23-1.362zm.028-12.884c-.105-.17-.25-.309-.324-.309-.073 0-.135.139-.135.309s.146.309.324.309.239-.139.135-.309m-.357 6.917c-.112.113-.02.206.204.206s.316-.093.204-.206a.29.29 0 0 0-.408 0m3.727 37.368c-.104-.17-.25-.309-.323-.309s-.135.139-.135.309.145.309.323.309.239-.139.135-.309m.051-6.709a.29.29 0 0 0-.408 0c-.112.113-.02.206.204.206s.316-.093.204-.206m-.308-6.528a1.23 1.23 0 0 0 0-.776c-.084-.213-.156-.038-.156.387s.069.6.156.386zm.41-7.183c0-.42-.54-.698-.736-.376-.092.149-.079.361.03.469.291.293.706.239.706-.093m-.767-13.644c.105.17.25.309.324.309.073 0 .135-.139.135-.309a.32.32 0 0 0-.324-.309c-.178 0-.239.139-.135.309m.767 6.951c0-.075-.138-.137-.306-.137s-.305.147-.305.33.137.242.305.137c.168-.106.306-.253.306-.328zm0-13.471a.3.3 0 0 0-.306-.292c-.168 0-.305.217-.305.482s.137.397.305.291.306-.322.306-.481m-.301-6.954c.171-.108.232-.324.135-.481-.262-.43-.445-.351-.445.193 0 .265.14.396.31.288m3.977 50.602c0-.152-.207-.275-.459-.275a.46.46 0 0 0-.458.456c0 .275.181.386.458.275.252-.098.459-.301.459-.456m6.432.325c0-.18-.138-.242-.306-.137-.168.106-.306.253-.306.33s.138.136.306.136.306-.146.306-.327zm6.585.018c-.105-.17-.258-.309-.342-.309s-.068.139.036.309.257.309.344.309.069-.139-.036-.309zm6.432 0c-.105-.17-.25-.309-.324-.309s-.135.139-.135.309.145.309.326.309.24-.139.135-.309zm.461-6.503a.32.32 0 0 0-.326-.309c-.181 0-.24.139-.135.309s.249.309.323.309.135-.139.135-.309zm-.199-41.354a4 4 0 0 0-.397-.273v-.157h-10.004v3.791c-.074.054-.122.123-.122.201 0 .077.046.128.122.154v6.364a1 1 0 0 0-.096-.005c-.637 0-.828.324-.428.728.142.145.341.165.524.096v7.079h-1.538v-18.411h-10.004v46.029h10.004v-17.7h1.538v3.015s-.015.008-.02.013c-.071.075-.059.139.02.175v6.591c-.071-.008-.122.085-.122.254 0 .17.051.263.122.255v5.944c-.068.016-.122.144-.122.304a.3.3 0 0 0 .122.237v.912h10.004V278.9c.262.198.596.157.596-.16 0-.273-.336-.561-.596-.595v-6.059a.4.4 0 0 0 .331-.047c.349-.216.339-1.055-.01-1.055-.118 0-.232.095-.321.229v-6.044q.028.017.061.033c.211.085.412.167.451.18.035.013-.013-.185-.11-.44-.086-.229-.257-.42-.4-.456v-12.874c.161-.113.291-.396.291-.644 0-.247-.13-.368-.291-.28v-5.777l.061.026c.877.332 1.101-.17.339-.757zm-16.955-2.933c.168 0 .306-.147.306-.327s-.138-.242-.306-.137c-.168.106-.306.253-.306.327s.138.137.306.137m13.402.376c.669.139.906-.356.343-.716-.608-.389-.878-.34-.878.162 0 .242.242.492.535.554m6.969 47.004c-.104-.17-.25-.309-.323-.309s-.135.139-.135.309.145.309.326.309c.18 0 .239-.139.135-.309zm3.065 3.407c-.105-.17-.258-.309-.342-.309s-.069.139.036.309c.104.17.257.309.344.309s.068-.139-.036-.309zm7.504-.206c0-.226-.206-.412-.459-.412-.252 0-.458.186-.458.412 0 .227.206.412.458.412.253 0 .459-.185.459-.412m6.74.693c0-.484-1.143-.981-1.477-.644-.115.116.061.407.387.649.754.559 1.09.556 1.09-.005m2.909-3.891c-.104-.17-.249-.309-.323-.309s-.135.139-.135.309.145.309.326.309.239-.139.135-.309zm-.303-7.113v-5.699a.23.23 0 0 0 .148-.036c.39-.245.408-1.396.02-1.396a.5.5 0 0 0-.168.033v-5.635c.069-.072.166-.311.24-.594.089-.34.035-.621-.117-.621-.044 0-.085.026-.123.067v-4.051q-.001-2.334-1.217-4.409-1.22-2.074-3.689-3.371-2.469-1.295-6.06-1.296c-.762 0-1.478.049-2.155.137a.3.3 0 0 0-.204-.082.31.31 0 0 0-.255.146q-1.9.308-3.349 1.097-2.373 1.298-3.495 3.372a9.14 9.14 0 0 0-1.121 4.408v18.022q0 2.334 1.121 4.409 1.122 2.074 3.495 3.371 2.371 1.295 5.963 1.296 3.591 0 6.06-1.296 2.47-1.297 3.689-3.371a8.6 8.6 0 0 0 1.202-3.953.33.33 0 0 0 .183.062c.179 0 .24-.139.135-.309-.096-.157-.226-.283-.303-.301m-19.759-39.959a.32.32 0 0 0-.324-.309c-.178 0-.24.139-.135.309s.25.309.323.309.136-.139.136-.309m-.204 13.111c-.112.114-.021.206.204.206s.315-.092.203-.206a.287.287 0 0 0-.407 0m3.118-3.196c.107.173.321.235.476.137.425-.266.346-.451-.191-.451-.263 0-.392.142-.285.314m6.475-.149c.186.487.492.579.82.25.27-.273-.405-1.072-.733-.868-.143.09-.181.366-.087.615zm3.783 3.551c.168 0 .305-.147.305-.327s-.137-.242-.305-.136-.306.252-.306.327c0 .074.138.136.306.136m7.074-.054-.364-.445c-.202-.245-.449-.353-.551-.24s-.012.268.199.343c.211.074.293.288.183.468-.122.201-.058.24.166.101l.369-.229zm.125-7.067c-.105-.169-.319-.309-.477-.309s-.288.14-.288.309c0 .17.214.31.477.31.262 0 .392-.14.288-.31m-.459-6.193c.168 0 .306-.147.306-.327s-.138-.242-.306-.137c-.168.106-.306.253-.306.327s.138.137.306.137m3.676 50.787a.31.31 0 0 0-.306-.309.31.31 0 0 0-.305.309c0 .17.137.309.305.309a.31.31 0 0 0 .306-.309m8.294-48.596h-10.07l.036 24.049.015 12.163.016 9.817h10.003zm-5.212-2.5c.178 0 .24-.139.135-.309s-.249-.309-.323-.309-.135.139-.135.309.145.309.323.309m6.618 40.363a.285.285 0 0 0-.407 0c-.113.113-.021.206.203.206.225 0 .316-.093.204-.206m0-6.503c-.112-.113-.204-.021-.204.206s.092.319.204.206a.295.295 0 0 0 0-.412m0-7.123c-.112-.114-.204-.021-.204.206s.092.319.204.206a.295.295 0 0 0 0-.412m.408-6.799c0-.085-.138-.07-.306.036-.168.105-.306.26-.306.348s.138.069.306-.036.306-.261.306-.346zm-.408-20.144c-.112-.113-.204-.021-.204.206s.092.319.204.206a.295.295 0 0 0 0-.412m-.02 13.296c-.102-.103-.173.08-.161.407.016.361.087.435.186.188.089-.224.079-.489-.023-.592zm3.63 37.677c-.263-.43-.446-.35-.446.196 0 .265.14.394.311.288.17-.108.232-.325.135-.482zm6.753.02c-.105-.17-.25-.309-.324-.309s-.135.139-.135.309.145.309.326.309.24-.139.135-.309zm6.485.103c-.112-.113-.203-.02-.203.206 0 .227.091.32.203.206a.295.295 0 0 0 0-.412m7.148.034c0-.075-.137-.137-.306-.137s-.305.147-.305.33.137.242.305.136c.169-.105.306-.252.306-.327zm-.458-13.763c.104.17.257.309.341.309s.069-.139-.036-.309c-.104-.169-.257-.309-.344-.309s-.068.14.036.309zm0-6.814c.104.17.257.309.341.309s.069-.139-.036-.309c-.104-.17-.257-.309-.344-.309s-.068.139.036.309zm7.046 20.438c-.105-.17-.25-.309-.324-.309s-.135.139-.135.309.145.309.326.309.24-.139.135-.309zm3.018-30.149c.054.015.122.005.199-.044.168-.106.306-.252.306-.327s-.138-.137-.306-.137a.31.31 0 0 0-.285.212 10.9 10.9 0 0 0-2.059-3.869q-2.598-3.144-6.959-3.144c-1.646 0-3.064.366-4.257 1.089a.29.29 0 0 0-.023-.378c-.112-.113-.203-.021-.203.206 0 .149.04.239.099.252-1.044.665-1.916 1.612-2.606 2.849q-2.63-4.018-7.053-4.018-1.511 0-3.307.131a.453.453 0 0 0-.441-.45c-.407 0-.708.28-.67.541a91 91 0 0 0-5.135.62v34.36h10.003V264.89q0-.323.255-.551.255-.225.515-.226.32.001.545.226a.76.76 0 0 1 .224.551v24.896h10.067V264.89q-.001-.323.257-.551.257-.225.512-.226a.75.75 0 0 1 .546.226q.06.062.107.134.118.181.117.417v24.896h10.003v-24.311q-.001-1.918-.453-3.582zm-30.109-10.108c.178 0 .239-.139.135-.309-.105-.17-.25-.309-.324-.309s-.135.139-.135.309.145.309.324.309m6.857-.309c.262 0 .476-.139.476-.309s-.129-.309-.287-.309-.375.139-.477.309c-.104.17.026.309.288.309m3.24 3.559c.171-.108.232-.325.135-.482-.262-.43-.446-.35-.446.196 0 .265.141.394.311.288zm10.103-3.405c.168-.105.306-.26.306-.345s-.138-.069-.306.036-.306.26-.306.348.138.069.306-.036zm10.768 3.168-.477-.482c-.262-.265-.583-.365-.713-.224-.13.142-.064.32.148.394.211.077.308.265.214.42s.053.193.328.085zm.275-.186q1.334-1.347 2.634-2.735a133 133 0 0 0 2.7-2.959 144 144 0 0 0 3.676-4.316.33.33 0 0 0 .183.062c.179 0 .24-.139.135-.309a1 1 0 0 0-.053-.075 142 142 0 0 0 7.522-10.116 119 119 0 0 0-12.113-13.484 110 110 0 0 0-3.609-3.314 118 118 0 0 0-13.71-10.417l-.161-.106a118 118 0 0 0-4.87-2.987c.11-.09.188-.188.188-.245 0-.075-.137-.136-.305-.136a.3.3 0 0 0-.257.162c-.89-.513-1.781-1.017-2.683-1.507a106 106 0 0 0-3.744-1.944 58 58 0 0 0-1.399-.682q-1.717-.83-3.464-1.6l-.123-.054a130 130 0 0 0 4.884-6.021q.31-.398.611-.803a135 135 0 0 0 3.065-4.245c.249-.164.42-.365.326-.471a131 131 0 0 0 3.599-5.521 131 131 0 0 0 3.576-6.147l.003-.006a132 132 0 0 0 2.099-4.009 130 130 0 0 0 3.969-8.638q.06-2.55.058-5.112-.002-5.431-.259-10.801a.3.3 0 0 0 .155-.049c.168-.105.306-.252.306-.327 0-.074-.138-.136-.306-.136a.3.3 0 0 0-.176.067c-.023-.487-.043-.976-.071-1.463v-.01q-.055-1.067-.125-2.13a218 218 0 0 0-.252-3.451 225 225 0 0 0-3.067-23.201c.007-.005.015-.005.023-.01.17-.108.232-.325.135-.484-.12-.196-.222-.281-.301-.268a227 227 0 0 0-1.943-9.23c-3.215-13.814-6.203-28.516-13.313-39.874q-.003-.001-.002-.002a135.3 135.3 0 0 0-37.737-40.53 134 134 0 0 0-7.576-4.976.29.29 0 0 0-.02-.378c-.112-.113-.204-.02-.204.206v.039a135 135 0 0 0-6.811-3.876 135 135 0 0 0-22.506-3.89q-.409-.003-.818-.002a146 146 0 0 0-10.212.358 144 144 0 0 0-21.23 3.085 5.65 5.65 0 0 0-2.962 1.713l-.013.013A143 143 0 0 0 93.21 43.42l-.14-.09c-.596-.382-.869-.33-.869.164q0 .434.64.268l.208-.054a141 141 0 0 0-6.796 13.799.8.8 0 0 0-.058-.343c-.16-.42-1.035-.93-1.035-.603 0 .09.145.438.321.773.217.412.535.512.688.368a140 140 0 0 0-3.553 9.243.2.2 0 0 0-.095-.039c-.076 0-.066.119.016.27a141 141 0 0 0-3.073 10.227c-.198-.244-.736-.108-.736.206 0 .075.214.137.477.137q.105 0 .178-.029a145 145 0 0 0-1.281 5.393 142 142 0 0 0-1.575 8.576 142.8 142.8 0 0 0-44.242 17.409 144 144 0 0 0 6.542 5.946 143.4 143.4 0 0 0 38.263 23.446 112.3 112.3 0 0 0-21.125 10.605l-.013-.015a.286.286 0 0 0-.407 0c-.1.1-.038.185.132.203a114 114 0 0 0-23.718 20.443 240 240 0 0 0 10.45 23.013 241 241 0 0 0 16.766 27.594.6.6 0 0 0-.181-.023c-.237 0-.36.185-.275.412s.28.335.43.239c.148-.092.227-.198.255-.298a241 241 0 0 0 14.502 18.562h13.61v11.303c2.83-.358 5.65-.54 8.397-.54 2.557 0 4.86.417 6.867 1.231a.33.33 0 0 0-.163.285c0 .181.138.242.306.137a.9.9 0 0 0 .275-.252q.431.19.843.406c1.824.958 3.332 2.182 4.491 3.647v-7.216c0-5.709 1.845-10.51 5.48-14.27 1.801-1.862 4.022-3.273 6.648-4.231a107 107 0 0 0-2.504-2.704 118 118 0 0 0-2.186-2.243q-.276-.281-.557-.559a138 138 0 0 0-20.802-17.005q.983-4.132 2.084-8.217c.244-.928.496-1.847.754-2.766q.875.906 1.773 1.795a137.7 137.7 0 0 0 20.167 16.59 136 136 0 0 0 16.925 9.747l-.003.044c0 .265.138.397.306.291a.6.6 0 0 0 .137-.121q2.069.993 4.175 1.916.081 1.94.138 3.886c1.959.912 3.671 2.117 5.118 3.616a1 1 0 0 0-.153.139l-.377.412.382-.219c.219-.126.392-.044.407.188l.023.405.161-.407.008-.024c1.885 2.081 3.253 4.44 4.091 7.07v-2.334h30.529v12.699l.169-.093c2.236-1.223 4.962-1.843 8.098-1.843 3.135 0 5.846.607 8.131 1.807q.205.108.407.222l-.017-12.792H217.1v11.339c2.818-.34 5.291-.512 7.37-.512 2.193 0 4.205.505 6.009 1.496-.041.142.087.247.316.247a1 1 0 0 0 .099-.007q.263.158.522.332c2-1.373 4.384-2.068 7.097-2.068 4.135 0 7.668 1.579 10.235 4.571zM119.481 227.5c.015.36.086.435.186.188.089-.224.076-.49-.023-.593-.102-.103-.173.08-.161.407zm.512-6.503c.084-.085.064-.389-.046-.677s-.268-.454-.352-.369-.063.389.046.678c.11.288.268.453.352.368m-3.752-3.899c-.421 0-.767.139-.767.309s.344.309.767.309c.422 0 .766-.139.766-.309s-.344-.309-.766-.309m-3.236 3.634c.349-.026.632-.237.632-.469 0-.505-.97-.379-1.144.149-.071.214.143.351.51.322zm.632-6.961c0-.585-.932-.866-1.235-.371-.14.229-.207.499-.145.597.221.361 1.38.17 1.38-.226m-4.465 3.839.211.554.263-.427c.351-.575.035-1.406-.377-.989-.169.17-.212.559-.097.862m.094-6.585c.369.374.456-.368.115-.963l-.319-.553-.01.646c-.005.355.092.747.214.87m-2.731-3.948.517.168-.446-.32c-.555-.396-.945-.175-.899.51l.036.523.137-.525c.087-.33.332-.464.655-.358zm-.283 6.591c-.491-.307-.715-.145-.433.316a.383.383 0 0 0 .523.137c.206-.129.175-.289-.09-.453m-3.64-3.366c0 .35.133.556.293.456.161-.101.214-.389.12-.639-.242-.641-.413-.564-.413.183m.14-6.627c.245 0 .375-.115.288-.257a.59.59 0 0 0-.446-.258c-.158 0-.287.116-.287.258s.201.257.445.257m-2.896-3.785c0-.075-.138-.137-.306-.137s-.305.147-.305.327.137.242.305.137c.168-.106.306-.253.306-.327m-.102 7.09a.286.286 0 0 0-.407 0c-.112.113-.02.206.203.206.225 0 .316-.093.204-.206m-4.147-3.163c-.064.191.04.296.23.232.188-.064.343-.222.343-.348 0-.363-.446-.273-.573.116M52.07 132.103c0 .265.138.396.306.291s.306-.322.306-.484a.3.3 0 0 0-.306-.291c-.168 0-.306.216-.306.481zm.204-6.469a.296.296 0 0 0 0-.413c-.112-.113-.204-.02-.204.206 0 .227.092.32.204.207m.4 12.67c-.413-.417-.718.005-.474.652l.207.546.277-.454c.168-.273.163-.569-.01-.744m-.606 7.754c0 .085.137.07.306-.036.168-.105.305-.26.305-.345s-.137-.069-.306.036-.305.26-.305.348zm3.574-17.429c-.112-.114-.204-.021-.204.206s.092.319.204.206a.295.295 0 0 0 0-.412m-.069 6.399c-.074 0-.135.139-.135.309s.145.309.323.309.24-.139.136-.309c-.105-.17-.25-.309-.324-.309m-.26 7.075c-.092.149-.079.36.03.468.291.294.706.24.706-.092 0-.42-.54-.698-.736-.376m3.936-10.199a.337.337 0 0 0-.469-.11.35.35 0 0 0-.112.474c.1.162.31.211.469.11a.35.35 0 0 0 .112-.474m.015 13.652c-.104-.17-.25-.309-.324-.309-.073 0-.134.139-.134.309s.145.309.323.309.24-.139.135-.309m-.614-6.814c.105.17.25.309.324.309s.135-.139.135-.309a.317.317 0 0 0-.324-.309c-.178 0-.24.139-.135.309m3.829 3.716c.168 0 .306-.147.306-.327s-.138-.242-.306-.137c-.168.106-.306.253-.306.33s.138.137.306.137zm6.638-6.917a.294.294 0 0 0 0-.412c-.112-.114-.204-.021-.204.206s.092.319.204.206m165.216 58.165c.171-.108.232-.324.135-.481-.262-.43-.446-.35-.446.193 0 .265.14.397.311.288m-.107 6.145c-.112-.113-.204-.02-.204.206 0 .227.092.32.204.206a.295.295 0 0 0 0-.412m.031-13.363c.073-.227-.067-.296-.365-.18-.267.103-.484.324-.484.489 0 .407.696.152.849-.312zm.616-5.962c.048.01-.059-.26-.239-.6-.181-.34-.4-.621-.489-.621-.09 0-.062.163.061.364q.222.366-.288.164c-.28-.108-.51-.128-.51-.041 0 .088.311.281.691.435.379.155.728.289.777.299zm-4.682 16.132.459.301c.578.379.613.379.613 0 0-.17-.242-.306-.535-.304l-.534.005zm.372-13.106.194.51.214-.597c.247-.693.155-.894-.288-.619-.173.109-.227.425-.12.706m.7 6.593a.31.31 0 0 0-.305-.309.309.309 0 0 0 0 .618.31.31 0 0 0 .305-.309m-3.37 3.252c0-.255-.137-.463-.305-.463s-.306.208-.306.463.138.464.306.464.305-.209.305-.464m-.178 6.547-.199-.525-.428.357-.428.358.36.438c.451.549.965.083.695-.631zm-3.612-3.049c-.082.134.127.268.469.291.438.033.565-.09.438-.425-.1-.26-.179-.531-.179-.603s-.343-.129-.766-.129-.767.139-.767.309.214.309.476.309c.263 0 .41.111.326.245zm40.857 40.769c0-.074-.138-.136-.306-.136s-.306.147-.306.327.138.242.306.136.306-.252.306-.327m-.166 6.655c-.262-.43-.446-.35-.446.196 0 .265.141.394.311.288.171-.106.232-.324.135-.481zm-3.202-3.405c0-.18-.137-.242-.305-.136-.169.105-.306.252-.306.327s.137.136.306.136.305-.146.305-.327m-.102 6.936a.285.285 0 0 0-.407 0c-.112.113-.021.206.204.206s.315-.093.203-.206m-3.676 3.098c-.112-.114-.203-.021-.203.206s.091.319.203.206a.293.293 0 0 0 0-.412m-3.064 3.716a.29.29 0 0 0-.408 0c-.112.113-.02.206.204.206s.316-.093.204-.206m-3.421 3.304c-.105-.17-.25-.309-.324-.309-.073 0-.135.139-.135.309s.146.309.324.309.239-.139.135-.309m-.306 34.063c-.104-.169-.249-.309-.323-.309s-.135.14-.135.309c0 .17.145.31.326.31s.239-.14.135-.31zm7.046 0c-.104-.169-.249-.309-.323-.309s-.135.14-.135.309c0 .17.145.31.326.31s.239-.14.135-.31zm6.74 0c-.104-.169-.249-.309-.323-.309s-.135.14-.135.309c0 .17.145.31.326.31s.24-.14.135-.31zm6.853-13.491a.2.2 0 0 0 .041-.122.15.15 0 0 0-.041-.105v-1.7h-10.004v3.763a.74.74 0 0 1-.226.548.73.73 0 0 1-.543.229.73.73 0 0 1-.545-.229.73.73 0 0 1-.227-.548v-5.772h11.545v-11.019q-.001-2.334-1.22-4.409t-3.686-3.371a10.3 10.3 0 0 0-2.038-.796q-1.501-.416-3.304-.484c-.102-.152-.229-.273-.298-.273s-.12.116-.13.26c-.097 0-.191-.005-.291-.005q-3.59 0-5.963 1.295-2.374 1.297-3.495 3.371a9.1 9.1 0 0 0-1.123 4.409v18.022q0 2.334 1.123 4.409 1.121 2.074 3.495 3.371 2.373 1.295 5.963 1.295 3.592 0 6.061-1.295 2.467-1.297 3.686-3.371c.145-.245.27-.494.389-.747a.7.7 0 0 0 .097.247c.112.186.347.248.517.139.209-.131.204-.303-.015-.525-.168-.17-.339-.211-.456-.165a8.4 8.4 0 0 0 .688-3.36v-3.068zm-3.482-3.539c-.105-.17-.25-.309-.324-.309s-.135.139-.135.309.145.309.324.309c.178 0 .239-.139.135-.309m-6.69.103a.287.287 0 0 0-.407 0c-.112.113-.021.206.204.206s.315-.093.203-.206m32.879-13.556c0 .074.214.136.476.136.263 0 .393-.141.286-.314-.176-.286-.762-.149-.762.178m-6.124-6.454.578-.044-.328-.399c-.413-.502-.456-.5-.663.044q-.167.445.411.399zm-3.678-3.631c0 .226.091.319.204.206a.295.295 0 0 0 0-.412c-.113-.114-.204-.021-.204.206m-6.585-.309c.104.17.257.309.341.309s.069-.139-.035-.309-.258-.309-.344-.309c-.087 0-.069.139.035.309zm-3.523 3.734c0 .18.137.242.305.136.169-.105.306-.252.306-.327 0-.074-.137-.136-.306-.136s-.305.147-.305.329zm.137 33.618c-.272-.106-.394-.054-.287.121.101.17.315.306.476.306.441 0 .344-.221-.189-.427m10.177 3.32c-.112-.114-.204-.021-.204.205 0 .227.092.32.204.207a.295.295 0 0 0 0-.412m9.716-28.244q-.002-2.334-1.218-4.409-1.22-2.074-3.689-3.371-2.467-1.295-6.06-1.295c-.721 0-1.401.044-2.048.123a.29.29 0 0 0-.071-.275c-.112-.113-.204-.021-.204.206q0 .057.008.103c-1.391.196-2.609.572-3.648 1.138q-2.372 1.297-3.495 3.371a9.16 9.16 0 0 0-1.121 4.409v3.176q0 2.724 1.154 4.537 1.154 1.817 3.592 3.047l5.833 2.853q.963.456.963 1.491v1.687a.75.75 0 0 1-.224.549.73.73 0 0 1-.545.229.73.73 0 0 1-.545-.229.74.74 0 0 1-.224-.549v-2.464h-10.004v3.695q0 2.334 1.218 4.409t3.688 3.371c1.646.863 3.663 1.295 6.06 1.295 2.398 0 4.382-.432 5.964-1.295q2.37-1.297 3.495-3.371a9.15 9.15 0 0 0 1.121-4.409v-3.178q0-2.722-1.154-4.538c-.431-.677-1.001-1.29-1.699-1.846.158-.106.285-.25.285-.33 0-.079-.138-.069-.306.036a1 1 0 0 0-.173.139 11.3 11.3 0 0 0-1.697-1.045l-5.833-2.851q-.963-.522-.963-1.491v-1.687q0-.323.224-.551a.74.74 0 0 1 .545-.227.74.74 0 0 1 .546.227q.224.228.224.551v2.465h10.003v-3.696zm-20.03 11.728c.573.358.83.095.367-.371-.196-.198-.459-.257-.584-.131s-.028.353.217.505zm20.096-6.763c.086.142.211.258.275.258s.188-.116.275-.258c.087-.141-.038-.257-.275-.257s-.362.116-.275.257m.734 20.214c0-.075-.138-.137-.306-.137s-.306.147-.306.33.138.242.306.137c.168-.106.306-.253.306-.328zm0-34.064c0-.074-.138-.136-.306-.136s-.306.147-.306.329.138.243.306.137.306-.252.306-.327zm2.756 24.038c0 .18.137.242.305.137.169-.106.306-.253.306-.33s-.137-.136-.306-.136-.305.146-.305.327zM82.228 142.819a133.4 133.4 0 0 0-23.24 22.927l-.22-.221.127.342a134 134 0 0 0-9.092 13.019 134 134 0 0 1-11.761-7.51 133 133 0 0 1 14.03-11.921c.031.193.156.278.304.185.17-.108.232-.324.135-.481l-.01-.016a132 132 0 0 1 16.51-10.291q.02.05.055.109c.105.17.258.309.342.309s.068-.139-.036-.309a1 1 0 0 0-.17-.209 130 130 0 0 1 13.026-5.928zm-33.533 19.938c0 .265.14.396.31.288.171-.108.233-.325.136-.482-.262-.43-.446-.35-.446.194m-2.914 3.229c-.176-.286-.762-.149-.762.178 0 .074.214.136.48.136.264 0 .389-.142.284-.314zm2.93 10.059a.39.39 0 0 0-.14.523c.13.211.3.206.519-.016.392-.396.09-.801-.382-.507zm.12-6.649c-.263 0-.39.141-.286.314.107.172.32.234.479.136.425-.265.346-.45-.194-.45m3.677-3.433a.34.34 0 0 0-.468-.111.35.35 0 0 0-.112.474c.099.162.31.211.468.111a.35.35 0 0 0 .112-.474m2.927-3.379c0 .227.092.319.204.206a.294.294 0 0 0 0-.412c-.112-.113-.204-.021-.204.206m.459 6.814c-.105-.17-.326-.309-.497-.309s-.221.139-.117.309.326.309.497.309.221-.139.117-.309m3.273-10.34c-.142-.09-.26.042-.26.289 0 .523.097.566.344.162.097-.16.059-.36-.084-.451m3.454-3.309c-.262-.43-.445-.35-.445.193 0 .266.14.397.31.289.171-.108.232-.325.136-.482m3.434-3.281a.287.287 0 0 0-.407 0c-.112.113-.02.206.203.206.225 0 .316-.093.204-.206m108.321 19.858a79 79 0 0 1 .639 10.059c-.231 5.47.398 11.337-3.441 15.604a42 42 0 0 1-6.035 6.153 44 44 0 0 1-1.778 1.377c-1.421 1.028-2.919 1.945-4.452 2.658q-.328.155-.66.294c-2.232.947-4.527 1.442-6.753 1.218a10 10 0 0 1-1.424-.247q-.176-.046-.352-.096a.85.85 0 0 1-.603-.893q.185-2.297.305-4.613c.051.119.153.16.268.088.168-.106.305-.322.305-.482a.3.3 0 0 0-.305-.291c-.1 0-.186.075-.242.191.112-2.246.175-4.502.196-6.76a.6.6 0 0 0 0-.186q.021-3.025-.064-6.052a.3.3 0 0 0 .107-.046c.168-.106.306-.252.306-.327s-.138-.137-.306-.137a.3.3 0 0 0-.122.029 165 165 0 0 0-.525-9.019 3.86 3.86 0 0 0-2.899-3.407 54 54 0 0 1-2.906-.835.2.2 0 0 0 .018-.082c0-.17-.207-.309-.459-.309a.55.55 0 0 0-.367.126 55 55 0 0 1-2.455-.881.253.253 0 0 1-.051-.44h.007a.76.76 0 0 1 .538-.144q.768.086 1.541.152l.581.046q.874.062 1.75.101a56.5 56.5 0 0 0 9.695-.43 54 54 0 0 0 4.313-.742.444.444 0 0 0 .234-.724 20.7 20.7 0 0 0-4.078-3.621 2 2 0 0 0-.326-.172 1.5 1.5 0 0 0-.349-.098 1.5 1.5 0 0 0-.469-.003q-.177.027-.354.049c-.354.047-.714.083-1.07.108-.589.042-1.179.052-1.77.042.025-.052.022-.114-.018-.181-.105-.17-.319-.309-.479-.309-.161 0-.288.139-.288.309q.002.087.069.157a21 21 0 0 1-1.75-.159 20.7 20.7 0 0 1-4.338-1.084 21 21 0 0 1-1.537-.644 3.38 3.38 0 0 1-1.905-2.707 3.4 3.4 0 0 1 .645-2.482 33.6 33.6 0 0 1 6.839-6.835c1.022-.76 1.31-2.189.624-3.268a15.2 15.2 0 0 0-2.998-3.451c-.902-.768-1.159-2.068-.634-3.137a29.3 29.3 0 0 0 2.787-9.42v-.018a.6.6 0 0 1 .481-.508h.003a.57.57 0 0 1 .504.16c5.095 5.091 7.953 12.516 7.68 19.809a.26.26 0 0 0-.041.134q.001.026.034.049-.024.545-.069 1.087c-.115 1.329.283 2.655 1.161 3.651a38.9 38.9 0 0 0 12.65 9.465.6.6 0 0 0 .225.105 38 38 0 0 0 3.706 1.473c.245.08.42.294.453.551zm-27.501-26.775c-.104-.17-.25-.309-.324-.309-.073 0-.135.139-.135.309s.146.309.324.309.239-.139.135-.309m-.459 13.626c0 .226.092.319.204.206a.295.295 0 0 0 0-.412c-.112-.114-.204-.021-.204.206m.416 6.374c-.632-.245-.787-.096-.551.53.102.268.383.412.619.32.581-.224.551-.611-.068-.85m2.955-23.08c0 .18.137.242.305.136s.306-.252.306-.327c0-.074-.138-.136-.306-.136s-.305.147-.305.329zm.305 19.92c0-.085-.137-.07-.305.036-.169.105-.306.26-.306.348s.137.069.306-.037c.168-.105.305-.26.305-.345zm-.102-6.415a.295.295 0 0 0 0-.412c-.112-.114-.203-.021-.203.206s.091.319.203.206m.543-7.051c-.268-.438-.746-.325-.746.177 0 .276.18.387.458.278.252-.097.382-.301.288-.455m2.929-3.065c.225 0 .316-.093.204-.206a.287.287 0 0 0-.407 0c-.112.113-.021.206.203.206m.153 6.503c-.104-.17-.257-.309-.341-.309s-.069.139.036.309c.104.17.257.309.341.309s.069-.139-.036-.309m-.254 14.04c-.113-.113-.204-.02-.204.206 0 .227.091.32.204.206a.295.295 0 0 0 0-.412m.407-7.09c0-.265-.137-.396-.306-.291s-.305.322-.305.482.137.291.305.291c.169 0 .306-.216.306-.482m2.756 3.444c0 .074.138.136.306.136s.306-.147.306-.327-.138-.242-.306-.137c-.168.106-.306.253-.306.328m.968 6.376-.637.167c-.649.173-.797.451-.433.819.227.229.716.281.716.078 0-.073.079-.34.178-.598l.179-.466zm-7.522 13.665c-.102-.104-.173.079-.16.406.015.361.086.436.185.188.09-.224.079-.489-.023-.592zm-.069-6.807c-.104.106-.084.443.049.749l.239.557.132-.567c.143-.61-.106-1.051-.417-.736zm3.111 4.257c.137.224.338.211.639-.041.537-.451.326-.737-.347-.477-.27.106-.402.338-.292.518m.657 26.415a.286.286 0 0 0-.408 0c-.112.113-.02.206.204.206s.316-.093.204-.206m.102-6.451a.463.463 0 0 0-.459-.464c-.479 0-.609.366-.255.724.352.355.716.226.716-.258zm-.716-6.554c.283.285.306.267.306-.258 0-.255-.115-.464-.255-.464-.306 0-.337.436-.051.724zm.448-7.536c-.782 0-1.172.603-.616.958.565.361 1.014.188 1.133-.443q.099-.517-.517-.517zm3.044-10.005c-.339.09-.524.335-.433.574l.161.42.565-.358c.698-.44.51-.85-.293-.638zm6.865 7.023c-.27.106-.402.337-.293.518.138.224.337.211.64-.042.535-.45.326-.736-.347-.476m-.453-13.585c0 .284.137.469.306.412.463-.157.509-.654.076-.801-.211-.069-.382.103-.382.387zm-3.37-3.551c0 .165.206.299.458.299s.459-.054.459-.121-.207-.201-.459-.302c-.252-.097-.458-.043-.458.121zm.061 14.174c.54.546.858.454.858-.247q.001-.619-.614-.62c-.692 0-.784.321-.244.867m.553 20.191c0-.34-.125-.621-.278-.621s-.206.278-.117.621c.089.34.214.62.277.62s.118-.278.118-.62m-.031-7.077c-.453-.157-.683.162-.423.587.166.27.288.255.482-.057.152-.247.127-.466-.059-.53m.336-7.554-.458.387c-.252.211-.459.595-.459.85v.463l.459-.386c.252-.211.458-.595.458-.85zm-.603-13.551c-.65 0-.749.237-.436 1.059.211.556.4.595 1.009.206.588-.379.188-1.265-.571-1.265zm3.342 4.337c.739 0 .815-.172.181-.417-.247-.095-.533-.041-.632.121s.102.296.451.296m.382 19.892c-.201-.067-.364.098-.364.368s.216.489.484.489c.54 0 .445-.667-.12-.857m.555-6.593c0-.16-.28-.291-.624-.291h-.624l.395.433c.407.445.856.373.856-.139zm2.756-10.201c.225 0 .316-.093.204-.206a.287.287 0 0 0-.407 0c-.113.113-.021.206.203.206m.614 20.783c0-.363-.896-.703-1.258-.477a.344.344 0 0 0-.107.467c.227.368 1.365.378 1.365.01m-.614-6.691c.169-.105.306-.252.306-.327s-.137-.136-.306-.136-.305.146-.305.327c0 .18.137.242.305.136m.614-6.781c0-.236-.206-.512-.458-.61-.314-.121-.459.018-.459.43 0 .335.207.611.459.611s.458-.194.458-.431m2.527-10.097c.24 0 .436-.214.436-.474 0-.536-.563-.456-.746.105-.067.204.073.369.313.369zm.128 19.613a.29.29 0 0 0-.408 0c-.112.113-.02.206.204.206s.316-.093.204-.206m.275-6.817-.214-.564-.303.544c-.166.298-.209.695-.097.878.326.536.861-.211.614-.86zm-.522-6.603h-.591l.321.608c.18.343.512.533.756.44.609-.237.229-1.048-.489-1.048zm3.413-9.891c0 .445.219.347.423-.188.104-.276.053-.4-.12-.291-.165.103-.303.319-.303.479m.364 12.75c-.201-.067-.364.098-.364.368 0 .271.216.489.484.489.54 0 .446-.667-.12-.857m.1-6.451c-.716-.533-1.035-.047-.444.674.281.343.474.376.719.124.242-.25.168-.469-.275-.798m-67.683-74.702a146 146 0 0 0-31.022.257 143 143 0 0 0-31.235 7.214 142.6 142.6 0 0 1 31.604-12.212 144.2 144.2 0 0 1 35.696-4.46c9.739 0 19.251.968 28.447 2.812.119.141.214.16.272.054q.422.082.843.17a234 234 0 0 1 .021 13.991 143 143 0 0 0-34.31-7.795.28.28 0 0 0-.316-.034zm13.49-.281c-.102-.103-.173.08-.16.407.015.361.086.435.186.188.089-.224.076-.492-.023-.595zm10.286 3.513c-.142-.09-.259.041-.259.288 0 .523.097.567.344.163.096-.16.058-.361-.085-.451m10.205 3.837c-.104-.17-.249-.309-.323-.309s-.135.139-.135.309.145.309.323.309.24-.139.135-.309m-.458-7.123c0 .226.091.319.203.206a.293.293 0 0 0 0-.412c-.112-.113-.203-.021-.203.206m-3.37-3.098c0 .226.091.319.203.206a.295.295 0 0 0 0-.412c-.112-.114-.203-.021-.203.206m-.166 6.793c.25.41.779.436.779.039 0-.366-.598-.757-.817-.533-.089.09-.074.314.038.494m-3.205-10.334c0 .265.14.396.311.288s.232-.324.135-.484c-.262-.43-.446-.35-.446.196m-.14 6.971c.263.43.446.35.446-.196 0-.265-.14-.394-.311-.288-.17.108-.232.324-.135.484m-3.23-3.737c0 .17.146.309.324.309s.239-.139.135-.309c-.105-.17-.25-.309-.324-.309s-.135.139-.135.309m-3.37 3.735c0 .18.138.242.306.136s.306-.252.306-.327-.138-.137-.306-.137-.306.147-.306.328m-3.676-3.562c0 .075.138.136.306.136s.306-.146.306-.327c0-.18-.138-.242-.306-.136s-.306.252-.306.327m-3.064-3.58c0 .227.092.32.204.206a.295.295 0 0 0 0-.412c-.112-.113-.204-.02-.204.206m-3.37 3.407c0 .17.145.309.323.309s.24-.139.135-.309-.249-.309-.323-.309-.135.139-.135.309m-3.37-3.407c0 .17.145.31.323.31s.24-.14.135-.31-.25-.309-.323-.309-.135.14-.135.31m0 7.142c0 .18.137.242.305.136s.306-.252.306-.327-.138-.137-.306-.137-.305.147-.305.328m-56.824 3.077c-.105-.17-.25-.309-.324-.309s-.135.139-.135.309.146.309.324.309.24-.139.135-.309m10.26-3.271c0-.074-.137-.136-.305-.136s-.306.147-.306.327.138.242.306.136.306-.252.306-.327m9.956-3.543c-.105-.17-.25-.309-.324-.309s-.135.139-.135.309.145.309.324.309c.178 0 .239-.139.135-.309m6.722-.026a.34.34 0 0 0-.469-.111.35.35 0 0 0-.112.474c.1.162.311.211.469.111a.346.346 0 0 0 .11-.474zm3.437-3.276a.287.287 0 0 0-.408 0c-.112.114-.02.206.204.206s.316-.093.204-.206m6.842.034c0-.075-.138-.137-.306-.137s-.306.147-.306.327.138.242.306.137c.168-.106.306-.253.306-.327m3.202 3.247c-.263-.43-.446-.35-.446.196 0 .265.14.396.31.288.171-.108.232-.324.136-.484m3.841-3.075c0-.17-.214-.309-.476-.309-.263 0-.393.14-.288.31.104.17.318.308.476.308s.288-.139.288-.309m29.957 177.704h2.157v8.03q0 1.048-.603 1.57-.605.526-1.554.526-.948 0-1.511-.526-.56-.522-.56-1.57v-5.934q0-.122.007-.237.057-.873.553-1.334.561-.525 1.511-.525m-.364 9.122c-.102-.103-.174.079-.161.406.015.361.087.436.186.188.089-.224.077-.489-.023-.592z"/></svg>